100i.ufo
<glyph name="dollar" format="2">
  <advance width="545"/>
  <unicode hex="0024"/>
  <outline>
    <contour>
      <point x="452" y="817" type="line"/>
      <point x="462" y="817" type="line"/>
      <point x="423" y="701" type="line"/>
      <point x="413" y="701" type="line"/>
    </contour>
    <contour>
      <point x="202" y="-2" type="line"/>
      <point x="211" y="-2" type="line"/>
      <point x="175" y="-112" type="line"/>
      <point x="165" y="-112" type="line"/>
    </contour>
    <contour>
      <point x="538" y="548" type="line"/>
      <point x="535" y="624"/>
      <point x="506" y="695"/>
      <point x="419" y="696" type="curve" smooth="yes"/>
      <point x="334" y="697"/>
      <point x="246" y="631"/>
      <point x="220" y="550" type="curve" smooth="yes"/>
      <point x="191" y="458"/>
      <point x="263" y="405"/>
      <point x="335" y="368" type="curve" smooth="yes"/>
      <point x="413" y="328"/>
      <point x="463" y="266"/>
      <point x="437" y="175" type="curve" smooth="yes"/>
      <point x="408" y="73"/>
      <point x="313" y="-9"/>
      <point x="204" y="-7" type="curve" smooth="yes"/>
      <point x="91" y="-5"/>
      <point x="65" y="99"/>
      <point x="63" y="193" type="curve"/>
      <point x="74" y="197" type="line"/>
      <point x="75" y="108"/>
      <point x="98" y="6"/>
      <point x="206" y="4" type="curve" smooth="yes"/>
      <point x="309" y="2"/>
      <point x="399" y="78"/>
      <point x="427" y="175" type="curve" smooth="yes"/>
      <point x="452" y="262"/>
      <point x="401" y="321"/>
      <point x="328" y="359" type="curve" smooth="yes"/>
      <point x="252" y="398"/>
      <point x="180" y="455"/>
      <point x="209" y="550" type="curve" smooth="yes"/>
      <point x="235" y="637"/>
      <point x="329" y="708"/>
      <point x="421" y="707" type="curve" smooth="yes"/>
      <point x="514" y="706"/>
      <point x="546" y="631"/>
      <point x="548" y="550" type="curve"/>
    </contour>
  </outline>
</glyph>
<glyph name="comma" format="2">
  <advance width="259"/>
  <unicode hex="002C"/>
  <outline>
    <contour>
      <point x="144" y="92" type="line"/>
      <point x="153" y="87" type="line"/>
      <point x="-39" y="-159" type="line"/>
      <point x="-45" y="-157" type="line"/>
    </contour>
  </outline>
</glyph>
<glyph name="one" format="2">
  <advance width="385"/>
  <unicode hex="0031"/>
  <outline>
    <contour>
      <point x="258" y="655" type="line"/>
      <point x="262" y="666" type="line"/>
      <point x="446" y="705" type="line"/>
      <point x="203" y="0" type="line"/>
      <point x="194" y="0" type="line"/>
      <point x="431" y="690" type="line"/>
    </contour>
  </outline>
</glyph>
<glyph name="nine" format="2">
  <advance width="504"/>
  <unicode hex="0039"/>
  <outline>
    <contour>
      <point x="562" y="480" type="curve" smooth="yes"/>
      <point x="594" y="581"/>
      <point x="555" y="698"/>
      <point x="434" y="699" type="curve" smooth="yes"/>
      <point x="311" y="700"/>
      <point x="204" y="593"/>
      <point x="170" y="480" type="curve" smooth="yes"/>
      <point x="142" y="387"/>
      <point x="181" y="277"/>
      <point x="291" y="274" type="curve" smooth="yes"/>
      <point x="412" y="271"/>
      <point x="526" y="369"/>
    </contour>
    <contour>
      <point x="159" y="0" type="line"/>
      <point x="147" y="0" type="line"/>
      <point x="481" y="345" type="line"/>
      <point x="484" y="344" type="line"/>
      <point x="428" y="300"/>
      <point x="364" y="261"/>
      <point x="290" y="263" type="curve" smooth="yes"/>
      <point x="174" y="266"/>
      <point x="131" y="380"/>
      <point x="160" y="480" type="curve" smooth="yes"/>
      <point x="194" y="599"/>
      <point x="305" y="710"/>
      <point x="435" y="709" type="curve" smooth="yes"/>
      <point x="564" y="708"/>
      <point x="605" y="589"/>
      <point x="571" y="480" type="curve" smooth="yes"/>
      <point x="552" y="420"/>
      <point x="513" y="367"/>
      <point x="470" y="321" type="curve" smooth="yes"/>
    </contour>
  </outline>
</glyph>
<glyph name="less" format="2">
  <advance width="602"/>
  <unicode hex="003C"/>
  <outline>
    <contour>
      <point x="111" y="256" type="line"/>
      <point x="506" y="55" type="line"/>
      <point x="503" y="46" type="line"/>
      <point x="93" y="254" type="line"/>
      <point x="95" y="260" type="line"/>
      <point x="647" y="469" type="line"/>
      <point x="644" y="459" type="line"/>
    </contour>
  </outline>
</glyph>
<glyph name="question" format="2">
  <advance width="509"/>
  <unicode hex="003F"/>
  <outline>
    <contour>
      <point x="549" y="520" type="curve" smooth="yes"/>
      <point x="582" y="612"/>
      <point x="536" y="698"/>
      <point x="434" y="699" type="curve" smooth="yes"/>
      <point x="347" y="700"/>
      <point x="276" y="645"/>
      <point x="215" y="589" type="curve"/>
      <point x="208" y="595" type="line"/>
      <point x="271" y="653"/>
      <point x="345" y="710"/>
      <point x="435" y="709" type="curve" smooth="yes"/>
      <point x="543" y="707"/>
      <point x="593" y="618"/>
      <point x="559" y="520" type="curve" smooth="yes"/>
      <point x="519" y="405"/>
      <point x="395" y="351"/>
      <point x="282" y="337" type="curve"/>
      <point x="224" y="171" type="line"/>
      <point x="216" y="171" type="line"/>
      <point x="272" y="345" type="line"/>
      <point x="273" y="345" type="line" smooth="yes"/>
      <point x="385" y="357"/>
      <point x="508" y="406"/>
    </contour>
    <contour>
      <point x="147" y="1" type="curve" smooth="yes"/>
      <point x="147" y="6"/>
      <point x="152" y="12"/>
      <point x="158" y="12" type="curve" smooth="yes"/>
      <point x="164" y="12"/>
      <point x="168" y="7"/>
      <point x="168" y="1" type="curve" smooth="yes"/>
      <point x="168" y="-5.12311"/>
      <point x="163" y="-10"/>
      <point x="157" y="-10" type="curve" smooth="yes"/>
      <point x="151" y="-10"/>
      <point x="147" y="-6.09902"/>
    </contour>
  </outline>
</glyph>
<glyph name="B" format="2">
  <advance width="465"/>
  <unicode hex="0042"/>
  <outline>
    <contour>
      <point x="169" y="386" type="line"/>
      <point x="171" y="394" type="line"/>
      <point x="267" y="394" type="line" smooth="yes"/>
      <point x="363" y="398"/>
      <point x="461" y="444"/>
      <point x="494" y="540" type="curve" smooth="yes"/>
      <point x="527" y="635"/>
      <point x="459" y="689"/>
      <point x="370" y="689" type="curve" smooth="yes"/>
      <point x="276" y="689" type="line"/>
      <point x="43" y="11" type="line"/>
      <point x="146" y="11" type="line" smooth="yes"/>
      <point x="265" y="11"/>
      <point x="375" y="83"/>
      <point x="413" y="200" type="curve" smooth="yes"/>
      <point x="446" y="302"/>
      <point x="376" y="384"/>
      <point x="275" y="384" type="curve" smooth="yes"/>
      <point x="168" y="384" type="line"/>
      <point x="170" y="392" type="line"/>
      <point x="285" y="392" type="line" smooth="yes"/>
      <point x="389" y="392"/>
      <point x="456" y="302"/>
      <point x="424" y="200" type="curve" smooth="yes"/>
      <point x="386" y="77"/>
      <point x="269" y="0"/>
      <point x="144" y="0" type="curve" smooth="yes"/>
      <point x="29" y="0" type="line"/>
      <point x="270" y="700" type="line"/>
      <point x="372" y="700" type="line" smooth="yes"/>
      <point x="466" y="700"/>
      <point x="539" y="640"/>
      <point x="505" y="539" type="curve" smooth="yes"/>
      <point x="472" y="441"/>
      <point x="375" y="390"/>
      <point x="276" y="386" type="curve" smooth="yes"/>
    </contour>
  </outline>
</glyph>
<glyph name="F" format="2">
  <advance width="423"/>
  <unicode hex="0046"/>
  <outline>
    <contour>
      <point x="268" y="689" type="line"/>
      <point x="272" y="700" type="line"/>
      <point x="552" y="700" type="line"/>
      <point x="548" y="689" type="line"/>
    </contour>
    <contour>
      <point x="160" y="373" type="line"/>
      <point x="164" y="383" type="line"/>
      <point x="434" y="383" type="line"/>
      <point x="431" y="373" type="line"/>
    </contour>
    <contour>
      <point x="270" y="699" type="line"/>
      <point x="281" y="699" type="line"/>
      <point x="40" y="0" type="line"/>
      <point x="29" y="0" type="line"/>
    </contour>
  </outline>
</glyph>
<glyph name="I" format="2">
  <advance width="169"/>
  <unicode hex="0049"/>
  <outline>
    <contour>
      <point x="266" y="699" type="line"/>
      <point x="276" y="699" type="line"/>
      <point x="34" y="0" type="line"/>
      <point x="24" y="0" type="line"/>
    </contour>
  </outline>
</glyph>
<glyph name="K" format="2">
  <advance width="427"/>
  <unicode hex="004B"/>
  <outline>
    <contour>
      <point x="266" y="699" type="line"/>
      <point x="276" y="699" type="line"/>
      <point x="35" y="0" type="line"/>
      <point x="24" y="0" type="line"/>
    </contour>
    <contour>
      <point x="569" y="698" type="line"/>
      <point x="585" y="698" type="line"/>
      <point x="173" y="371" type="line"/>
      <point x="357" y="0" type="line"/>
      <point x="344" y="0" type="line"/>
      <point x="161" y="373" type="line"/>
    </contour>
  </outline>
</glyph>
<glyph name="P" format="2">
  <advance width="451"/>
  <unicode hex="0050"/>
  <outline>
    <contour>
      <point x="270" y="699" type="line"/>
      <point x="281" y="699" type="line"/>
      <point x="40" y="0" type="line"/>
      <point x="29" y="0" type="line"/>
    </contour>
    <contour>
      <point x="272" y="690" type="line"/>
      <point x="276" y="700" type="line"/>
      <point x="386" y="700" type="line" smooth="yes"/>
      <point x="502" y="700"/>
      <point x="558" y="606"/>
      <point x="521" y="497" type="curve" smooth="yes"/>
      <point x="482" y="380"/>
      <point x="371" y="294"/>
      <point x="249" y="294" type="curve" smooth="yes"/>
      <point x="137" y="294" type="line"/>
      <point x="140" y="304" type="line"/>
      <point x="251" y="304" type="line" smooth="yes"/>
      <point x="368" y="304"/>
      <point x="472" y="386"/>
      <point x="510" y="497" type="curve" smooth="yes"/>
      <point x="546" y="601"/>
      <point x="495" y="690"/>
      <point x="384" y="690" type="curve" smooth="yes"/>
    </contour>
  </outline>
</glyph>
<glyph name="X" format="2">
  <advance width="470"/>
  <unicode hex="0058"/>
  <outline>
    <contour>
      <point x="606" y="698" type="line"/>
      <point x="620" y="698" type="line"/>
      <point x="322" y="366" type="line"/>
      <point x="418" y="0" type="line"/>
      <point x="405" y="0" type="line"/>
      <point x="314" y="355" type="line"/>
      <point x="-3" y="0" type="line"/>
      <point x="-17" y="0" type="line"/>
      <point x="311" y="368" type="line"/>
      <point x="223" y="700" type="line"/>
      <point x="236" y="700" type="line"/>
      <point x="319" y="378" type="line"/>
    </contour>
  </outline>
</glyph>
<glyph name="asciicircum" format="2">
  <advance width="479"/>
  <unicode hex="005E"/>
  <outline>
    <contour>
      <point x="422" y="690" type="line"/>
      <point x="177" y="462" type="line"/>
      <point x="162" y="462" type="line"/>
      <point x="427" y="708" type="line"/>
      <point x="426" y="708" type="line"/>
      <point x="523" y="460" type="line"/>
      <point x="511" y="460" type="line"/>
    </contour>
  </outline>
</glyph>
<glyph name="g" format="2">
  <advance width="509"/>
  <unicode hex="0067"/>
  <outline>
    <contour>
      <point x="-7" y="-30" type="curve"/>
      <point x="3" y="-30" type="line"/>
      <point x="-20" y="-120"/>
      <point x="-6" y="-217"/>
      <point x="107" y="-219" type="curve" smooth="yes"/>
      <point x="237" y="-221"/>
      <point x="334.396" y="-101.827"/>
      <point x="373" y="10" type="curve" smooth="yes"/>
      <point x="528" y="459" type="line"/>
      <point x="538" y="459" type="line"/>
      <point x="384" y="10" type="line" smooth="yes"/>
      <point x="343.569" y="-107.881"/>
      <point x="242" y="-230"/>
      <point x="106" y="-229" type="curve" smooth="yes"/>
      <point x="-12" y="-228"/>
      <point x="-31" y="-125"/>
    </contour>
    <contour>
      <point x="66" y="230" type="curve" smooth="yes"/>
      <point x="105" y="346"/>
      <point x="215" y="472"/>
      <point x="348" y="469" type="curve" smooth="yes"/>
      <point x="474" y="466"/>
      <point x="485" y="324"/>
      <point x="454" y="230" type="curve" smooth="yes"/>
      <point x="417" y="120"/>
      <point x="313" y="-8"/>
      <point x="186" y="-9" type="curve" smooth="yes"/>
      <point x="53" y="-10"/>
      <point x="32" y="128"/>
    </contour>
    <contour>
      <point x="76" y="230" type="curve" smooth="yes"/>
      <point x="42" y="132"/>
      <point x="62" y="0"/>
      <point x="190" y="1" type="curve" smooth="yes"/>
      <point x="312" y="2"/>
      <point x="415" y="129"/>
      <point x="450" y="235" type="curve" smooth="yes"/>
      <point x="479" y="322"/>
      <point x="464" y="455"/>
      <point x="349" y="459" type="curve" smooth="yes"/>
      <point x="222" y="464"/>
      <point x="114" y="341"/>
    </contour>
  </outline>
</glyph>
<glyph name="m" format="2">
  <advance width="649"/>
  <unicode hex="006D"/>
  <outline>
    <contour>
      <point x="625" y="320" type="curve" smooth="yes"/>
      <point x="514" y="0" type="line"/>
      <point x="504" y="0" type="line"/>
      <point x="615" y="320" type="line" smooth="yes"/>
      <point x="631" y="372"/>
      <point x="643" y="456"/>
      <point x="567" y="459" type="curve" smooth="yes"/>
      <point x="480" y="463"/>
      <point x="404" y="375"/>
      <point x="378" y="299" type="curve" smooth="yes"/>
      <point x="274" y="0" type="line"/>
      <point x="264" y="0" type="line"/>
      <point x="375" y="320" type="line" smooth="yes"/>
      <point x="391" y="372"/>
      <point x="403" y="456"/>
      <point x="327" y="459" type="curve" smooth="yes"/>
      <point x="241" y="463"/>
      <point x="166" y="377"/>
      <point x="139" y="301" type="curve" smooth="yes"/>
      <point x="34" y="0" type="line"/>
      <point x="24" y="0" type="line"/>
      <point x="184" y="459" type="line"/>
      <point x="194" y="459" type="line"/>
      <point x="152" y="342" type="line"/>
      <point x="181" y="403"/>
      <point x="249.006" y="473.158"/>
      <point x="329" y="470" type="curve" smooth="yes"/>
      <point x="405" y="467"/>
      <point x="405" y="390"/>
      <point x="390" y="343" type="curve"/>
      <point x="433" y="419"/>
      <point x="488" y="472"/>
      <point x="568" y="469" type="curve" smooth="yes"/>
      <point x="651" y="466"/>
      <point x="643" y="378"/>
    </contour>
  </outline>
</glyph>
<glyph name="n" format="2">
  <advance width="446"/>
  <unicode hex="006E"/>
  <outline>
    <contour>
      <point x="413" y="320" type="line" smooth="yes"/>
      <point x="432" y="384"/>
      <point x="429" y="457"/>
      <point x="346" y="459" type="curve" smooth="yes"/>
      <point x="252" y="461"/>
      <point x="168" y="383"/>
      <point x="139" y="300" type="curve" smooth="yes"/>
      <point x="34" y="0" type="line"/>
      <point x="24" y="0" type="line"/>
      <point x="184" y="459" type="line"/>
      <point x="194" y="459" type="line"/>
      <point x="154" y="343" type="line"/>
      <point x="188" y="411"/>
      <point x="258" y="470"/>
      <point x="347" y="469" type="curve" smooth="yes"/>
      <point x="436" y="468"/>
      <point x="444" y="389"/>
      <point x="423" y="320" type="curve" smooth="yes"/>
      <point x="311" y="0" type="line"/>
      <point x="302" y="0" type="line"/>
    </contour>
  </outline>
</glyph>
<glyph name="s" format="2">
  <advance width="379"/>
  <unicode hex="0073"/>
  <outline>
    <contour>
      <point x="58" y="147" type="line"/>
      <point x="54" y="79"/>
      <point x="66" y="1"/>
      <point x="151" y="0" type="curve" smooth="yes"/>
      <point x="218" y="-1"/>
      <point x="287" y="53"/>
      <point x="305" y="117" type="curve" smooth="yes"/>
      <point x="323" y="180"/>
      <point x="274" y="210"/>
      <point x="223" y="231" type="curve" smooth="yes"/>
      <point x="164" y="255"/>
      <point x="116" y="287"/>
      <point x="139" y="359" type="curve" smooth="yes"/>
      <point x="160" y="423"/>
      <point x="228" y="468"/>
      <point x="294" y="467" type="curve" smooth="yes"/>
      <point x="357" y="466"/>
      <point x="382" y="424"/>
      <point x="391" y="368" type="curve"/>
      <point x="381" y="365" type="line"/>
      <point x="373" y="418"/>
      <point x="353" y="456"/>
      <point x="293" y="457" type="curve" smooth="yes"/>
      <point x="232" y="458.017"/>
      <point x="168" y="417"/>
      <point x="149" y="359" type="curve" smooth="yes"/>
      <point x="126" y="291"/>
      <point x="175" y="262"/>
      <point x="230" y="240" type="curve" smooth="yes"/>
      <point x="285" y="218"/>
      <point x="333" y="183"/>
      <point x="315" y="117" type="curve" smooth="yes"/>
      <point x="296" y="47"/>
      <point x="223" y="-9"/>
      <point x="150" y="-9" type="curve" smooth="yes"/>
      <point x="60" y="-9"/>
      <point x="44" y="70"/>
      <point x="48" y="144" type="curve"/>
    </contour>
  </outline>
</glyph>
<glyph name="v" format="2">
  <advance width="395"/>
  <unicode hex="0076"/>
  <outline>
    <contour>
      <point x="117" y="460" type="line"/>
      <point x="128" y="460" type="line"/>
      <point x="165" y="11" type="line"/>
      <point x="483" y="459" type="line"/>
      <point x="495" y="459" type="line"/>
      <point x="158" y="-15" type="line"/>
    </contour>
  </outline>
</glyph>
<glyph name="yen" format="2">
  <advance width="531"/>
  <unicode hex="00A5"/>
  <outline>
    <contour>
      <point x="66" y="270" type="line"/>
      <point x="69" y="280" type="line"/>
      <point x="518" y="280" type="line"/>
      <point x="515" y="270" type="line"/>
    </contour>
    <contour>
      <point x="23" y="145" type="line"/>
      <point x="27" y="155" type="line"/>
      <point x="476" y="155" type="line"/>
      <point x="473" y="145" type="line"/>
    </contour>
    <contour>
      <point x="650" y="698" type="line"/>
      <point x="663" y="698" type="line"/>
      <point x="289" y="264" type="line"/>
      <point x="198" y="0" type="line"/>
      <point x="187" y="0" type="line"/>
      <point x="281" y="268" type="line"/>
      <point x="213" y="700" type="line"/>
      <point x="225" y="700" type="line"/>
      <point x="289" y="282" type="line"/>
    </contour>
  </outline>
</glyph>
<glyph name="brokenbar" format="2">
  <advance width="197"/>
  <unicode hex="00A6"/>
  <outline>
    <contour>
      <point x="279" y="694" type="line"/>
      <point x="289" y="694" type="line"/>
      <point x="203" y="456" type="line"/>
      <point x="193" y="456" type="line"/>
    </contour>
    <contour>
      <point x="135" y="244" type="line"/>
      <point x="49" y="6" type="line"/>
      <point x="39" y="6" type="line"/>
      <point x="125" y="244" type="line"/>
    </contour>
  </outline>
</glyph>
<glyph name="copyright" format="2">
  <advance width="752"/>
  <unicode hex="00A9"/>
  <outline>
    <contour>
      <point x="260" y="350" type="curve" smooth="yes"/>
      <point x="231" y="257"/>
      <point x="261" y="145"/>
      <point x="375" y="143" type="curve" smooth="yes"/>
      <point x="428" y="142"/>
      <point x="475" y="165"/>
      <point x="519" y="191" type="curve"/>
      <point x="516" y="182" type="line"/>
      <point x="472" y="157"/>
      <point x="426" y="135"/>
      <point x="374" y="136" type="curve" smooth="yes"/>
      <point x="256" y="138"/>
      <point x="222" y="252"/>
      <point x="252" y="350" type="curve" smooth="yes"/>
      <point x="285" y="459"/>
      <point x="386" y="563"/>
      <point x="505" y="564" type="curve" smooth="yes"/>
      <point x="551" y="565"/>
      <point x="586" y="548"/>
      <point x="619" y="518" type="curve"/>
      <point x="616" y="509" type="line"/>
      <point x="585" y="541"/>
      <point x="551" y="557"/>
      <point x="505" y="557" type="curve" smooth="yes"/>
      <point x="389" y="556"/>
      <point x="292" y="455"/>
    </contour>
    <contour>
      <point x="121" y="350" type="curve" smooth="yes"/>
      <point x="69" y="183"/>
      <point x="149" y="1"/>
      <point x="341" y="0" type="curve" smooth="yes"/>
      <point x="540" y="-1"/>
      <point x="722" y="167"/>
      <point x="779" y="350" type="curve" smooth="yes"/>
      <point x="831" y="517"/>
      <point x="751" y="699"/>
      <point x="559" y="700" type="curve" smooth="yes"/>
      <point x="360" y="701"/>
      <point x="178" y="533"/>
    </contour>
    <contour>
      <point x="111" y="350" type="curve" smooth="yes"/>
      <point x="169" y="540"/>
      <point x="353" y="711"/>
      <point x="559" y="710" type="curve" smooth="yes"/>
      <point x="758" y="709"/>
      <point x="842" y="524"/>
      <point x="789" y="350" type="curve" smooth="yes"/>
      <point x="731" y="160"/>
      <point x="546" y="-11"/>
      <point x="340" y="-10" type="curve" smooth="yes"/>
      <point x="141" y="-9"/>
      <point x="58" y="176"/>
    </contour>
  </outline>
</glyph>
<glyph name="logicalnot" format="2">
  <advance width="583"/>
  <unicode hex="00AC"/>
  <outline>
    <contour>
      <point x="131" y="365" type="line"/>
      <point x="135" y="375" type="line"/>
      <point x="597" y="375" type="line"/>
      <point x="526" y="176" type="line"/>
      <point x="516" y="176" type="line"/>
      <point x="584" y="365" type="line"/>
    </contour>
  </outline>
</glyph>
<glyph name="uni00B2" format="2">
  <advance width="312"/>
  <unicode hex="00B2"/>
  <outline>
    <contour>
      <point x="70" y="283" type="line"/>
      <point x="318" y="483" type="line" smooth="yes"/>
      <point x="354" y="513"/>
      <point x="395" y="548"/>
      <point x="411" y="594" type="curve" smooth="yes"/>
      <point x="429" y="645"/>
      <point x="409" y="700"/>
      <point x="349" y="702" type="curve" smooth="yes"/>
      <point x="268" y="705"/>
      <point x="216" y="623"/>
      <point x="185" y="560" type="curve"/>
      <point x="179" y="560" type="line"/>
      <point x="211" y="626"/>
      <point x="264" y="711"/>
      <point x="349" y="708" type="curve" smooth="yes"/>
      <point x="412" y="706"/>
      <point x="435" y="649"/>
      <point x="417" y="594" type="curve" smooth="yes"/>
      <point x="402" y="547"/>
      <point x="361" y="510"/>
      <point x="324" y="479" type="curve" smooth="yes"/>
      <point x="87" y="289" type="line"/>
      <point x="328" y="288" type="line"/>
      <point x="326" y="282" type="line"/>
    </contour>
  </outline>
</glyph>
<glyph name="mu" format="2">
  <advance width="446"/>
  <unicode hex="00B5"/>
  <outline>
    <contour>
      <point x="194" y="459" type="line"/>
      <point x="81.045" y="132.312" type="line"/>
      <point x="66.0251" y="71.5548"/>
      <point x="69.9186" y="1.91002"/>
      <point x="150" y="1" type="curve" smooth="yes"/>
      <point x="246.363" y="-0.889472"/>
      <point x="330" y="80"/>
      <point x="358.91" y="164.287" type="curve" smooth="yes"/>
      <point x="461" y="459" type="line"/>
      <point x="471" y="459" type="line"/>
      <point x="312" y="0" type="line"/>
      <point x="302" y="0" type="line"/>
      <point x="342.895" y="112.489" type="line"/>
      <point x="302.288" y="49.0566"/>
      <point x="237.467" y="-10.6568"/>
      <point x="148" y="-9" type="curve" smooth="yes"/>
      <point x="82.603" y="-8.31161"/>
      <point x="62.6985" y="33.6044"/>
      <point x="63.8204" y="82.4955" type="curve"/>
      <point x="-75" y="-319" type="line"/>
      <point x="-85" y="-319" type="line"/>
      <point x="184" y="459" type="line"/>
    </contour>
  </outline>
</glyph>
<glyph name="paragraph" format="2">
  <advance width="421"/>
  <unicode hex="00B6"/>
  <outline>
    <contour>
      <point x="307.666" y="270.159" type="line"/>
      <point x="188.541" y="284.609"/>
      <point x="127.169" y="366.435"/>
      <point x="167" y="485" type="curve" smooth="yes"/>
      <point x="210" y="613"/>
      <point x="325" y="700"/>
      <point x="455" y="700" type="curve" smooth="yes"/>
      <point x="551" y="700" type="line"/>
      <point x="235" y="-219" type="line"/>
      <point x="225" y="-219" type="line"/>
      <point x="537.902" y="690" type="line"/>
      <point x="463.892" y="690" type="line"/>
      <point x="150" y="-219" type="line"/>
      <point x="140" y="-219" type="line"/>
    </contour>
  </outline>
</glyph>
<glyph name="uni00B9" format="2">
  <advance width="442"/>
  <unicode hex="00B9"/>
  <outline>
    <contour>
      <point x="308" y="667" type="line"/>
      <point x="310" y="674" type="line"/>
      <point x="422" y="697" type="line"/>
      <point x="274" y="275" type="line"/>
      <point x="268" y="275" type="line"/>
      <point x="411" y="688" type="line"/>
    </contour>
  </outline>
</glyph>
<glyph name="ordmasculine" format="2">
  <advance width="261"/>
  <unicode hex="00BA"/>
  <outline>
    <contour>
      <point x="162" y="581" type="curve" smooth="yes"/>
      <point x="182" y="642"/>
      <point x="248" y="700"/>
      <point x="315" y="699" type="curve" smooth="yes"/>
      <point x="381" y="698"/>
      <point x="406" y="636"/>
      <point x="387" y="579" type="curve" smooth="yes"/>
      <point x="367" y="518"/>
      <point x="301" y="460"/>
      <point x="234" y="461" type="curve" smooth="yes"/>
      <point x="168" y="462"/>
      <point x="143" y="524"/>
    </contour>
    <contour>
      <point x="171" y="580" type="curve" smooth="yes"/>
      <point x="153" y="529"/>
      <point x="175" y="473"/>
      <point x="235" y="471" type="curve" smooth="yes"/>
      <point x="296" y="469"/>
      <point x="359" y="525"/>
      <point x="378" y="580" type="curve" smooth="yes"/>
      <point x="396" y="631"/>
      <point x="374" y="687"/>
      <point x="314" y="689" type="curve" smooth="yes"/>
      <point x="253" y="691"/>
      <point x="190" y="635"/>
    </contour>
  </outline>
</glyph>
<glyph name="guillemotright" format="2">
  <advance width="456"/>
  <unicode hex="00BB"/>
  <outline>
    <contour>
      <point x="292" y="255" type="line"/>
      <point x="176" y="483" type="line"/>
      <point x="184" y="490" type="line"/>
      <point x="302" y="253" type="line"/>
      <point x="24" y="22" type="line"/>
      <point x="20" y="29" type="line"/>
    </contour>
    <contour>
      <point x="443" y="255" type="line"/>
      <point x="327" y="483" type="line"/>
      <point x="335" y="490" type="line"/>
      <point x="452" y="253" type="line"/>
      <point x="175" y="22" type="line"/>
      <point x="170" y="29" type="line"/>
    </contour>
  </outline>
</glyph>
<glyph name="Aacute" format="2">
  <advance width="564"/>
  <unicode hex="00C1"/>
  <outline>
    <contour>
      <point x="158" y="272" type="line"/>
      <point x="161" y="282" type="line"/>
      <point x="486" y="282" type="line"/>
      <point x="483" y="272" type="line"/>
    </contour>
    <contour>
      <point x="465" y="688" type="line"/>
      <point x="169" y="277" type="line"/>
      <point x="167" y="273" type="line"/>
      <point x="-30" y="0" type="line"/>
      <point x="-42" y="0" type="line"/>
      <point x="473" y="715" type="line"/>
      <point x="496" y="0" type="line"/>
      <point x="484" y="0" type="line"/>
      <point x="478" y="273" type="line"/>
      <point x="478" y="276" type="line"/>
    </contour>
    <contour>
      <point x="675" y="930" type="line"/>
      <point x="456" y="777" type="line"/>
      <point x="454" y="782" type="line"/>
      <point x="670" y="938" type="line"/>
    </contour>
  </outline>
</glyph>
<glyph name="Acircumflex" format="2">
  <advance width="564"/>
  <unicode hex="00C2"/>
  <outline>
    <contour>
      <point x="158" y="272" type="line"/>
      <point x="161" y="282" type="line"/>
      <point x="486" y="282" type="line"/>
      <point x="483" y="272" type="line"/>
    </contour>
    <contour>
      <point x="465" y="688" type="line"/>
      <point x="169" y="277" type="line"/>
      <point x="167" y="273" type="line"/>
      <point x="-30" y="0" type="line"/>
      <point x="-42" y="0" type="line"/>
      <point x="473" y="715" type="line"/>
      <point x="496" y="0" type="line"/>
      <point x="484" y="0" type="line"/>
      <point x="478" y="273" type="line"/>
      <point x="478" y="276" type="line"/>
    </contour>
    <contour>
      <point x="540" y="909" type="line"/>
      <point x="348" y="777" type="line"/>
      <point x="343" y="784" type="line"/>
      <point x="542" y="921" type="line"/>
      <point x="646" y="782" type="line"/>
      <point x="638" y="775" type="line"/>
    </contour>
  </outline>
</glyph>
<glyph name="Aring" format="2">
  <advance width="564"/>
  <unicode hex="00C5"/>
  <outline>
    <contour>
      <point x="158" y="272" type="line"/>
      <point x="161" y="282" type="line"/>
      <point x="486" y="282" type="line"/>
      <point x="483" y="272" type="line"/>
    </contour>
    <contour>
      <point x="465" y="688" type="line"/>
      <point x="169" y="277" type="line"/>
      <point x="167" y="273" type="line"/>
      <point x="-30" y="0" type="line"/>
      <point x="-42" y="0" type="line"/>
      <point x="473" y="715" type="line"/>
      <point x="496" y="0" type="line"/>
      <point x="484" y="0" type="line"/>
      <point x="478" y="273" type="line"/>
      <point x="478" y="276" type="line"/>
    </contour>
    <contour>
      <point x="407" y="809" type="curve" smooth="yes"/>
      <point x="424" y="860"/>
      <point x="483" y="908"/>
      <point x="538" y="907" type="curve" smooth="yes"/>
      <point x="592" y="906"/>
      <point x="617" y="855"/>
      <point x="601" y="807" type="curve" smooth="yes"/>
      <point x="584" y="756"/>
      <point x="525" y="708"/>
      <point x="470" y="709" type="curve" smooth="yes"/>
      <point x="416" y="710"/>
      <point x="391" y="761"/>
    </contour>
    <contour>
      <point x="417" y="808" type="curve" smooth="yes"/>
      <point x="403" y="766"/>
      <point x="424" y="721"/>
      <point x="472" y="719" type="curve" smooth="yes"/>
      <point x="521" y="717"/>
      <point x="576" y="763"/>
      <point x="591" y="808" type="curve" smooth="yes"/>
      <point x="605" y="850"/>
      <point x="584" y="895"/>
      <point x="536" y="897" type="curve" smooth="yes"/>
      <point x="487" y="899"/>
      <point x="432" y="853"/>
    </contour>
  </outline>
</glyph>
<glyph name="Ccedilla" format="2">
  <advance width="644"/>
  <unicode hex="00C7"/>
  <outline>
    <contour>
      <point x="124" y="350" type="curve" smooth="yes"/>
      <point x="72" y="197"/>
      <point x="113" y="8"/>
      <point x="304" y="5" type="curve" smooth="yes"/>
      <point x="393" y="4"/>
      <point x="473" y="39"/>
      <point x="546" y="86" type="curve"/>
      <point x="540" y="71" type="line"/>
      <point x="467" y="26"/>
      <point x="389" y="-8"/>
      <point x="302" y="-7" type="curve" smooth="yes"/>
      <point x="104" y="-5"/>
      <point x="58" y="190"/>
      <point x="112" y="350" type="curve" smooth="yes"/>
      <point x="173" y="532"/>
      <point x="342" y="706"/>
      <point x="544" y="708" type="curve" smooth="yes"/>
      <point x="619" y="709"/>
      <point x="679" y="683"/>
      <point x="730" y="629" type="curve"/>
      <point x="725" y="614" type="line"/>
      <point x="678" y="672"/>
      <point x="616" y="697"/>
      <point x="542" y="696" type="curve" smooth="yes"/>
      <point x="346" y="694"/>
      <point x="184" y="525"/>
    </contour>
    <contour>
      <point x="298" y="-2" type="line"/>
      <point x="310" y="-2" type="line"/>
      <point x="229" y="-76" type="line"/>
      <point x="251" y="-66"/>
      <point x="278" y="-51"/>
      <point x="303" y="-54" type="curve" smooth="yes"/>
      <point x="342" y="-58"/>
      <point x="358" y="-92"/>
      <point x="348" y="-128" type="curve" smooth="yes"/>
      <point x="334" y="-181"/>
      <point x="268" y="-221"/>
      <point x="215" y="-220" type="curve" smooth="yes"/>
      <point x="183" y="-220"/>
      <point x="164" y="-204"/>
      <point x="143" y="-183" type="curve"/>
      <point x="151" y="-177" type="line"/>
      <point x="170" y="-195"/>
      <point x="189" y="-210"/>
      <point x="217" y="-210" type="curve" smooth="yes"/>
      <point x="265" y="-210"/>
      <point x="324" y="-175"/>
      <point x="338" y="-127" type="curve" smooth="yes"/>
      <point x="347" y="-97"/>
      <point x="334" y="-68"/>
      <point x="301" y="-64" type="curve" smooth="yes"/>
      <point x="272" y="-60"/>
      <point x="241" y="-77"/>
      <point x="215" y="-88" type="curve"/>
    </contour>
  </outline>
</glyph>
<glyph name="Egrave" format="2">
  <advance width="479"/>
  <unicode hex="00C8"/>
  <outline>
    <contour>
      <point x="32" y="0" type="line"/>
      <point x="35" y="10" type="line"/>
      <point x="354" y="10" type="line"/>
      <point x="351" y="0" type="line"/>
    </contour>
    <contour>
      <point x="268" y="690" type="line"/>
      <point x="271" y="700" type="line"/>
      <point x="589" y="700" type="line"/>
      <point x="586" y="690" type="line"/>
    </contour>
    <contour>
      <point x="163" y="384" type="line"/>
      <point x="167" y="394" type="line"/>
      <point x="466" y="394" type="line"/>
      <point x="463" y="384" type="line"/>
    </contour>
    <contour>
      <point x="270" y="699" type="line"/>
      <point x="281" y="699" type="line"/>
      <point x="40" y="0" type="line"/>
      <point x="29" y="0" type="line"/>
    </contour>
    <contour>
      <point x="359" y="925" type="line"/>
      <point x="368" y="932" type="line"/>
      <point x="476" y="773" type="line"/>
      <point x="471" y="769" type="line"/>
    </contour>
  </outline>
</glyph>
<glyph name="Ecircumflex" format="2">
  <advance width="479"/>
  <unicode hex="00CA"/>
  <outline>
    <contour>
      <point x="32" y="0" type="line"/>
      <point x="35" y="10" type="line"/>
      <point x="354" y="10" type="line"/>
      <point x="351" y="0" type="line"/>
    </contour>
    <contour>
      <point x="268" y="690" type="line"/>
      <point x="271" y="700" type="line"/>
      <point x="589" y="700" type="line"/>
      <point x="586" y="690" type="line"/>
    </contour>
    <contour>
      <point x="163" y="384" type="line"/>
      <point x="167" y="394" type="line"/>
      <point x="466" y="394" type="line"/>
      <point x="463" y="384" type="line"/>
    </contour>
    <contour>
      <point x="270" y="699" type="line"/>
      <point x="281" y="699" type="line"/>
      <point x="40" y="0" type="line"/>
      <point x="29" y="0" type="line"/>
    </contour>
    <contour>
      <point x="500" y="902" type="line"/>
      <point x="308" y="770" type="line"/>
      <point x="303" y="777" type="line"/>
      <point x="502" y="914" type="line"/>
      <point x="606" y="775" type="line"/>
      <point x="598" y="768" type="line"/>
    </contour>
  </outline>
</glyph>
<glyph name="Igrave" format="2">
  <advance width="169"/>
  <unicode hex="00CC"/>
  <outline>
    <contour>
      <point x="266" y="699" type="line"/>
      <point x="276" y="699" type="line"/>
      <point x="34" y="0" type="line"/>
      <point x="24" y="0" type="line"/>
    </contour>
    <contour>
      <point x="199" y="925" type="line"/>
      <point x="208" y="932" type="line"/>
      <point x="316" y="773" type="line"/>
      <point x="311" y="769" type="line"/>
    </contour>
  </outline>
</glyph>
<glyph name="Iacute" format="2">
  <advance width="169"/>
  <unicode hex="00CD"/>
  <outline>
    <contour>
      <point x="266" y="699" type="line"/>
      <point x="276" y="699" type="line"/>
      <point x="34" y="0" type="line"/>
      <point x="24" y="0" type="line"/>
    </contour>
    <contour>
      <point x="494" y="923" type="line"/>
      <point x="275" y="770" type="line"/>
      <point x="272" y="775" type="line"/>
      <point x="489" y="931" type="line"/>
    </contour>
  </outline>
</glyph>
<glyph name="Icircumflex" format="2">
  <advance width="169"/>
  <unicode hex="00CE"/>
  <outline>
    <contour>
      <point x="266" y="699" type="line"/>
      <point x="276" y="699" type="line"/>
      <point x="34" y="0" type="line"/>
      <point x="24" y="0" type="line"/>
    </contour>
    <contour>
      <point x="340" y="902" type="line"/>
      <point x="148" y="770" type="line"/>
      <point x="143" y="777" type="line"/>
      <point x="342" y="914" type="line"/>
      <point x="446" y="775" type="line"/>
      <point x="438" y="768" type="line"/>
    </contour>
  </outline>
</glyph>
<glyph name="Eth" format="2">
  <advance width="639"/>
  <unicode hex="00D0"/>
  <outline>
    <contour>
      <point x="68" y="345" type="line"/>
      <point x="71" y="355" type="line"/>
      <point x="354" y="355" type="line"/>
      <point x="351" y="345" type="line"/>
    </contour>
    <contour>
      <point x="270" y="699" type="line"/>
      <point x="281" y="699" type="line"/>
      <point x="40" y="0" type="line"/>
      <point x="29" y="0" type="line"/>
    </contour>
    <contour>
      <point x="182" y="0" type="curve" smooth="yes"/>
      <point x="35" y="0" type="line"/>
      <point x="39" y="11" type="line"/>
      <point x="184" y="11" type="line" smooth="yes"/>
      <point x="381" y="18"/>
      <point x="543" y="169"/>
      <point x="605" y="350" type="curve" smooth="yes"/>
      <point x="661" y="512"/>
      <point x="609" y="681"/>
      <point x="417" y="689" type="curve" smooth="yes"/>
      <point x="270" y="689" type="line"/>
      <point x="274" y="700" type="line"/>
      <point x="419" y="700" type="line" smooth="yes"/>
      <point x="617" y="693"/>
      <point x="673" y="518"/>
      <point x="616" y="350" type="curve" smooth="yes"/>
      <point x="553" y="163"/>
      <point x="386" y="6"/>
    </contour>
  </outline>
</glyph>
<glyph name="Otilde" format="2">
  <advance width="728"/>
  <unicode hex="00D5"/>
  <outline>
    <contour>
      <point x="123" y="350" type="curve" smooth="yes"/>
      <point x="70" y="194"/>
      <point x="117" y="4"/>
      <point x="310" y="3" type="curve" smooth="yes"/>
      <point x="507" y="2"/>
      <point x="676" y="174"/>
      <point x="736" y="350" type="curve" smooth="yes"/>
      <point x="789" y="506"/>
      <point x="742" y="696"/>
      <point x="549" y="697" type="curve" smooth="yes"/>
      <point x="352" y="698"/>
      <point x="183" y="526"/>
    </contour>
    <contour>
      <point x="112" y="350" type="curve" smooth="yes"/>
      <point x="173" y="532"/>
      <point x="348" y="709"/>
      <point x="550" y="708" type="curve" smooth="yes"/>
      <point x="748" y="707"/>
      <point x="801" y="512"/>
      <point x="747" y="350" type="curve" smooth="yes"/>
      <point x="686" y="168"/>
      <point x="511" y="-9"/>
      <point x="309" y="-8" type="curve" smooth="yes"/>
      <point x="111" y="-7"/>
      <point x="58" y="188"/>
    </contour>
    <contour>
      <point x="460" y="790" type="line"/>
      <point x="478" y="816"/>
      <point x="501" y="846"/>
      <point x="539" y="846" type="curve" smooth="yes"/>
      <point x="579.012" y="846"/>
      <point x="599" y="799"/>
      <point x="639" y="801" type="curve" smooth="yes"/>
      <point x="668" y="802"/>
      <point x="691" y="828"/>
      <point x="710" y="847" type="curve"/>
      <point x="717" y="844" type="line"/>
      <point x="696" y="822"/>
      <point x="671" y="793"/>
      <point x="637" y="793" type="curve" smooth="yes"/>
      <point x="598" y="793"/>
      <point x="578" y="837"/>
      <point x="540" y="838" type="curve" smooth="yes"/>
      <point x="506" y="839"/>
      <point x="486" y="813"/>
      <point x="468" y="789" type="curve"/>
    </contour>
  </outline>
</glyph>
<glyph name="Ugrave" format="2">
  <advance width="541"/>
  <unicode hex="00D9"/>
  <outline>
    <contour>
      <point x="266" y="699" type="line"/>
      <point x="276" y="699" type="line"/>
      <point x="111" y="220" type="line" smooth="yes"/>
      <point x="81" y="124"/>
      <point x="90" y="3"/>
      <point x="216" y="2" type="curve" smooth="yes"/>
      <point x="342" y="1"/>
      <point x="432" y="112"/>
      <point x="472" y="220" type="curve" smooth="yes"/>
      <point x="637" y="699" type="line"/>
      <point x="648" y="699" type="line"/>
      <point x="484" y="220" type="line" smooth="yes"/>
      <point x="442" y="104"/>
      <point x="349" y="-10"/>
      <point x="215" y="-9" type="curve" smooth="yes"/>
      <point x="81" y="-8"/>
      <point x="69" y="116"/>
      <point x="101" y="220" type="curve" smooth="yes"/>
    </contour>
    <contour>
      <point x="404" y="925" type="line"/>
      <point x="413" y="932" type="line"/>
      <point x="521" y="773" type="line"/>
      <point x="516" y="769" type="line"/>
    </contour>
  </outline>
</glyph>
<glyph name="Yacute" format="2">
  <advance width="477"/>
  <unicode hex="00DD"/>
  <outline>
    <contour>
      <point x="648" y="923" type="line"/>
      <point x="429" y="770" type="line"/>
      <point x="426" y="775" type="line"/>
      <point x="642" y="931" type="line"/>
    </contour>
    <contour>
      <point x="636" y="698" type="line"/>
      <point x="649" y="698" type="line"/>
      <point x="276" y="266" type="line"/>
      <point x="184" y="0" type="line"/>
      <point x="173" y="0" type="line"/>
      <point x="266" y="267" type="line"/>
      <point x="199" y="700" type="line"/>
      <point x="211" y="700" type="line"/>
      <point x="274" y="282" type="line"/>
    </contour>
  </outline>
</glyph>
<glyph name="Thorn" format="2">
  <advance width="489"/>
  <unicode hex="00DE"/>
  <outline>
    <contour>
      <point x="261" y="699" type="line"/>
      <point x="271" y="699" type="line"/>
      <point x="29" y="0" type="line"/>
      <point x="20" y="0" type="line"/>
    </contour>
    <contour>
      <point x="212" y="550" type="line"/>
      <point x="216" y="560" type="line"/>
      <point x="362" y="560" type="line" smooth="yes"/>
      <point x="481" y="555"/>
      <point x="556" y="468"/>
      <point x="516" y="350" type="curve" smooth="yes"/>
      <point x="474" y="226"/>
      <point x="348" y="145"/>
      <point x="220" y="140" type="curve" smooth="yes"/>
      <point x="72" y="140" type="line"/>
      <point x="76" y="150" type="line"/>
      <point x="222" y="150" type="line" smooth="yes"/>
      <point x="342" y="156"/>
      <point x="465" y="234"/>
      <point x="505" y="350" type="curve" smooth="yes"/>
      <point x="544" y="462"/>
      <point x="473" y="544"/>
      <point x="360" y="550" type="curve" smooth="yes"/>
    </contour>
  </outline>
</glyph>
<glyph name="germandbls" format="2">
  <advance width="530"/>
  <unicode hex="00DF"/>
  <outline>
    <contour>
      <point x="270" y="-10" type="curve" smooth="yes"/>
      <point x="214" y="-10"/>
      <point x="167" y="12"/>
      <point x="135" y="46" type="curve"/>
      <point x="142" y="52" type="line"/>
      <point x="174" y="20"/>
      <point x="216" y="0"/>
      <point x="270" y="0" type="curve" smooth="yes"/>
      <point x="386" y="0"/>
      <point x="486" y="126"/>
      <point x="486" y="260" type="curve" smooth="yes"/>
      <point x="486" y="394"/>
      <point x="380" y="348"/>
      <point x="380" y="436" type="curve" smooth="yes"/>
      <point x="380" y="510"/>
      <point x="572" y="503"/>
      <point x="572" y="668" type="curve" smooth="yes"/>
      <point x="572" y="740"/>
      <point x="524" y="784"/>
      <point x="453" y="784" type="curve" smooth="yes"/>
      <point x="357" y="784"/>
      <point x="265.749" y="683.673"/>
      <point x="230" y="580" type="curve" smooth="yes"/>
      <point x="30" y="0" type="line"/>
      <point x="20" y="0" type="line"/>
      <point x="218" y="580" type="line" smooth="yes"/>
      <point x="256.142" y="691.729"/>
      <point x="351" y="794"/>
      <point x="453" y="794" type="curve" smooth="yes"/>
      <point x="529" y="794"/>
      <point x="582" y="748"/>
      <point x="582" y="668" type="curve" smooth="yes"/>
      <point x="582" y="496"/>
      <point x="390" y="504"/>
      <point x="390" y="434" type="curve" smooth="yes"/>
      <point x="390" y="358"/>
      <point x="496" y="400"/>
      <point x="496" y="262" type="curve" smooth="yes"/>
      <point x="496" y="118"/>
      <point x="391" y="-10"/>
    </contour>
  </outline>
</glyph>
<glyph name="ae" format="2">
  <advance width="825"/>
  <unicode hex="00E6"/>
  <outline>
    <contour>
      <point x="121" y="-10" type="curve" smooth="yes"/>
      <point x="31" y="-10"/>
      <point x="-13" y="50"/>
      <point x="14" y="132" type="curve" smooth="yes"/>
      <point x="44" y="222"/>
      <point x="138" y="281"/>
      <point x="249" y="281" type="curve" smooth="yes"/>
      <point x="306" y="281"/>
      <point x="350" y="263"/>
      <point x="368" y="234" type="curve"/>
      <point x="363" y="233" type="line"/>
      <point x="392" y="320" type="line" smooth="yes"/>
      <point x="422" y="411"/>
      <point x="403" y="460"/>
      <point x="325" y="460" type="curve" smooth="yes"/>
      <point x="271" y="460"/>
      <point x="202" y="437"/>
      <point x="146" y="395" type="curve"/>
      <point x="142" y="403" type="line"/>
      <point x="200" y="445"/>
      <point x="267" y="470"/>
      <point x="325" y="470" type="curve" smooth="yes"/>
      <point x="417" y="470"/>
      <point x="437" y="408"/>
      <point x="388" y="282" type="curve"/>
      <point x="384" y="282" type="line"/>
      <point x="440" y="391"/>
      <point x="556" y="470"/>
      <point x="665" y="470" type="curve" smooth="yes"/>
      <point x="779" y="470"/>
      <point x="842" y="374"/>
      <point x="802" y="253" type="curve" smooth="yes"/>
      <point x="799" y="243"/>
      <point x="796" y="241"/>
      <point x="790" y="228" type="curve"/>
      <point x="367" y="228" type="line"/>
      <point x="373" y="230" type="line"/>
      <point x="325" y="90"/>
      <point x="373" y="0"/>
      <point x="493" y="0" type="curve" smooth="yes"/>
      <point x="577" y="0"/>
      <point x="668" y="41"/>
      <point x="739" y="113" type="curve"/>
      <point x="745" y="107" type="line"/>
      <point x="675" y="33"/>
      <point x="585" y="-10"/>
      <point x="495" y="-10" type="curve" smooth="yes"/>
      <point x="383" y="-10"/>
      <point x="328" y="58"/>
      <point x="351" y="178" type="curve"/>
      <point x="356" y="178" type="line"/>
      <point x="304" y="59"/>
      <point x="217" y="-10"/>
    </contour>
    <contour>
      <point x="121" y="0" type="curve" smooth="yes"/>
      <point x="215" y="0"/>
      <point x="304" y="73"/>
      <point x="356" y="198" type="curve"/>
      <point x="349" y="179" type="line"/>
      <point x="362" y="230" type="line"/>
      <point x="363" y="224" type="line"/>
      <point x="346" y="253"/>
      <point x="304" y="271"/>
      <point x="248" y="271" type="curve" smooth="yes"/>
      <point x="144" y="271"/>
      <point x="51" y="214"/>
      <point x="24" y="132" type="curve" smooth="yes"/>
      <point x="-1" y="56"/>
      <point x="38" y="0"/>
    </contour>
    <contour>
      <point x="374" y="236" type="curve"/>
      <point x="371" y="238" type="line"/>
      <point x="791" y="238" type="line"/>
      <point x="782" y="234" type="line"/>
      <point x="785" y="238"/>
      <point x="787" y="244"/>
      <point x="790" y="252" type="curve" smooth="yes"/>
      <point x="829" y="368"/>
      <point x="773" y="460"/>
      <point x="663" y="460" type="curve" smooth="yes"/>
      <point x="545" y="460"/>
      <point x="415" y="360"/>
    </contour>
  </outline>
</glyph>
<glyph name="ntilde" format="2">
  <advance width="446"/>
  <unicode hex="00F1"/>
  <outline>
    <contour>
      <point x="194" y="459" type="line"/>
      <point x="34" y="0" type="line"/>
      <point x="24" y="0" type="line"/>
      <point x="184" y="459" type="line"/>
    </contour>
    <contour>
      <point x="413" y="320" type="line" smooth="yes"/>
      <point x="432" y="384"/>
      <point x="429" y="457"/>
      <point x="346" y="459" type="curve" smooth="yes"/>
      <point x="244" y="461"/>
      <point x="170" y="363"/>
      <point x="129" y="282" type="curve"/>
      <point x="124" y="282" type="line"/>
      <point x="165" y="369"/>
      <point x="239" y="470"/>
      <point x="347" y="469" type="curve" smooth="yes"/>
      <point x="436" y="468"/>
      <point x="444" y="389"/>
      <point x="423" y="320" type="curve" smooth="yes"/>
      <point x="311" y="0" type="line"/>
      <point x="302" y="0" type="line"/>
    </contour>
    <contour>
      <point x="238" y="552" type="line"/>
      <point x="257" y="579"/>
      <point x="279" y="608"/>
      <point x="316" y="608" type="curve" smooth="yes"/>
      <point x="356" y="608"/>
      <point x="377" y="561"/>
      <point x="417" y="563" type="curve" smooth="yes"/>
      <point x="446" y="564"/>
      <point x="468" y="590"/>
      <point x="487" y="609" type="curve"/>
      <point x="496" y="606" type="line"/>
      <point x="475" y="584"/>
      <point x="449" y="555"/>
      <point x="415" y="555" type="curve" smooth="yes"/>
      <point x="376" y="555"/>
      <point x="356" y="599"/>
      <point x="317" y="600" type="curve" smooth="yes"/>
      <point x="284" y="601"/>
      <point x="264" y="575"/>
      <point x="247" y="551" type="curve"/>
    </contour>
  </outline>
</glyph>
<glyph name="odieresis" format="2">
  <advance width="523"/>
  <unicode hex="00F6"/>
  <outline>
    <contour>
      <point x="66" y="230" type="curve" smooth="yes"/>
      <point x="107" y="353"/>
      <point x="230" y="470"/>
      <point x="366" y="469" type="curve" smooth="yes"/>
      <point x="499" y="468"/>
      <point x="543" y="341"/>
      <point x="506" y="230" type="curve" smooth="yes"/>
      <point x="465" y="107"/>
      <point x="341" y="-10"/>
      <point x="205" y="-9" type="curve" smooth="yes"/>
      <point x="72" y="-8"/>
      <point x="29" y="119"/>
    </contour>
    <contour>
      <point x="76" y="230" type="curve" smooth="yes"/>
      <point x="40" y="124"/>
      <point x="79" y="2"/>
      <point x="206" y="1" type="curve" smooth="yes"/>
      <point x="336" y="0"/>
      <point x="456" y="112"/>
      <point x="496" y="230" type="curve" smooth="yes"/>
      <point x="532" y="336"/>
      <point x="493" y="458"/>
      <point x="366" y="459" type="curve" smooth="yes"/>
      <point x="236" y="460"/>
      <point x="116" y="348"/>
    </contour>
    <contour>
      <point x="482" y="561" type="curve" smooth="yes"/>
      <point x="483" y="565"/>
      <point x="491" y="572"/>
      <point x="496" y="572" type="curve" smooth="yes"/>
      <point x="501" y="572"/>
      <point x="504" y="566"/>
      <point x="503" y="561" type="curve" smooth="yes"/>
      <point x="502" y="557"/>
      <point x="495" y="550"/>
      <point x="490" y="550" type="curve" smooth="yes"/>
      <point x="485" y="550"/>
      <point x="481" y="556"/>
    </contour>
    <contour>
      <point x="294" y="561" type="curve" smooth="yes"/>
      <point x="295" y="565"/>
      <point x="303" y="572"/>
      <point x="308" y="572" type="curve" smooth="yes"/>
      <point x="313" y="572"/>
      <point x="316" y="566"/>
      <point x="315" y="561" type="curve" smooth="yes"/>
      <point x="314" y="557"/>
      <point x="306" y="550"/>
      <point x="301" y="550" type="curve" smooth="yes"/>
      <point x="296" y="550"/>
      <point x="293" y="556"/>
    </contour>
  </outline>
</glyph>
<glyph name="divide" format="2">
  <advance width="586"/>
  <unicode hex="00F7"/>
  <outline>
    <contour>
      <point x="381" y="451" type="curve" smooth="yes"/>
      <point x="382" y="455"/>
      <point x="390" y="462"/>
      <point x="395" y="462" type="curve" smooth="yes"/>
      <point x="400" y="462"/>
      <point x="403" y="456"/>
      <point x="402" y="451" type="curve" smooth="yes"/>
      <point x="401" y="447"/>
      <point x="393" y="440"/>
      <point x="388" y="440" type="curve" smooth="yes"/>
      <point x="383" y="440"/>
      <point x="380" y="446"/>
    </contour>
    <contour>
      <point x="237" y="31" type="curve" smooth="yes"/>
      <point x="238" y="35"/>
      <point x="246" y="42"/>
      <point x="251" y="42" type="curve" smooth="yes"/>
      <point x="256" y="42"/>
      <point x="260" y="36"/>
      <point x="259" y="31" type="curve" smooth="yes"/>
      <point x="258" y="27"/>
      <point x="250" y="20"/>
      <point x="245" y="20" type="curve" smooth="yes"/>
      <point x="240" y="20"/>
      <point x="236" y="26"/>
    </contour>
    <contour>
      <point x="82" y="235" type="line"/>
      <point x="86" y="245" type="line"/>
      <point x="556" y="245" type="line"/>
      <point x="553" y="235" type="line"/>
    </contour>
  </outline>
</glyph>
<glyph name="ugrave" format="2">
  <advance width="446"/>
  <unicode hex="00F9"/>
  <outline>
    <contour>
      <point x="302" y="0" type="line"/>
      <point x="461" y="459" type="line"/>
      <point x="471" y="459" type="line"/>
      <point x="312" y="0" type="line"/>
    </contour>
    <contour>
      <point x="86" y="150" type="line" smooth="yes"/>
      <point x="66" y="86"/>
      <point x="62" y="2"/>
      <point x="150" y="1" type="curve" smooth="yes"/>
      <point x="252" y="-1"/>
      <point x="325" y="96"/>
      <point x="366" y="178" type="curve"/>
      <point x="372" y="178" type="line"/>
      <point x="331" y="91"/>
      <point x="256" y="-11"/>
      <point x="148" y="-9" type="curve" smooth="yes"/>
      <point x="53" y="-8"/>
      <point x="54" y="80"/>
      <point x="76" y="150" type="curve" smooth="yes"/>
      <point x="184" y="459" type="line"/>
      <point x="194" y="459" type="line"/>
    </contour>
    <contour>
      <point x="260" y="697" type="line"/>
      <point x="270" y="704" type="line"/>
      <point x="377" y="545" type="line"/>
      <point x="371" y="541" type="line"/>
    </contour>
  </outline>
</glyph>
<glyph name="yacute" format="2">
  <advance width="399"/>
  <unicode hex="00FD"/>
  <outline>
    <contour>
      <point x="495" y="459" type="line"/>
      <point x="-22" y="-219" type="line"/>
      <point x="-33" y="-218" type="line"/>
      <point x="151" y="21" type="line"/>
      <point x="112" y="460" type="line"/>
      <point x="124" y="460" type="line"/>
      <point x="160" y="20" type="line"/>
      <point x="149" y="21" type="line"/>
      <point x="484" y="459" type="line"/>
    </contour>
    <contour>
      <point x="528" y="685" type="line"/>
      <point x="310" y="532" type="line"/>
      <point x="306" y="537" type="line"/>
      <point x="522" y="693" type="line"/>
    </contour>
  </outline>
</glyph>
<glyph name="Cdotaccent" format="2">
  <advance width="644"/>
  <unicode hex="010A"/>
  <outline>
    <contour>
      <point x="124" y="350" type="curve" smooth="yes"/>
      <point x="72" y="197"/>
      <point x="113" y="8"/>
      <point x="304" y="5" type="curve" smooth="yes"/>
      <point x="393" y="4"/>
      <point x="473" y="39"/>
      <point x="546" y="86" type="curve"/>
      <point x="540" y="71" type="line"/>
      <point x="467" y="26"/>
      <point x="389" y="-8"/>
      <point x="302" y="-7" type="curve" smooth="yes"/>
      <point x="104" y="-5"/>
      <point x="58" y="190"/>
      <point x="112" y="350" type="curve" smooth="yes"/>
      <point x="173" y="532"/>
      <point x="342" y="706"/>
      <point x="544" y="708" type="curve" smooth="yes"/>
      <point x="619" y="709"/>
      <point x="679" y="683"/>
      <point x="730" y="629" type="curve"/>
      <point x="725" y="614" type="line"/>
      <point x="678" y="672"/>
      <point x="616" y="697"/>
      <point x="542" y="696" type="curve" smooth="yes"/>
      <point x="346" y="694"/>
      <point x="184" y="525"/>
    </contour>
    <contour>
      <point x="562" y="789" type="curve" smooth="yes"/>
      <point x="563" y="793"/>
      <point x="571" y="800"/>
      <point x="576" y="800" type="curve" smooth="yes"/>
      <point x="581" y="800"/>
      <point x="584" y="794"/>
      <point x="583" y="789" type="curve" smooth="yes"/>
      <point x="582" y="785"/>
      <point x="574" y="778"/>
      <point x="569" y="778" type="curve" smooth="yes"/>
      <point x="564" y="778"/>
      <point x="561" y="784"/>
    </contour>
  </outline>
</glyph>
<glyph name="Ccaron" format="2">
  <advance width="644"/>
  <unicode hex="010C"/>
  <outline>
    <contour>
      <point x="124" y="350" type="curve" smooth="yes"/>
      <point x="72" y="197"/>
      <point x="113" y="8"/>
      <point x="304" y="5" type="curve" smooth="yes"/>
      <point x="393" y="4"/>
      <point x="473" y="39"/>
      <point x="546" y="86" type="curve"/>
      <point x="540" y="71" type="line"/>
      <point x="467" y="26"/>
      <point x="389" y="-8"/>
      <point x="302" y="-7" type="curve" smooth="yes"/>
      <point x="104" y="-4"/>
      <point x="58" y="190"/>
      <point x="112" y="350" type="curve" smooth="yes"/>
      <point x="173" y="532"/>
      <point x="342" y="706"/>
      <point x="544" y="708" type="curve" smooth="yes"/>
      <point x="619" y="709"/>
      <point x="679" y="683"/>
      <point x="730" y="629" type="curve"/>
      <point x="725" y="614" type="line"/>
      <point x="678" y="672"/>
      <point x="616" y="697"/>
      <point x="542" y="696" type="curve" smooth="yes"/>
      <point x="346" y="694"/>
      <point x="184" y="525"/>
    </contour>
    <contour>
      <point x="572" y="791" type="line"/>
      <point x="763" y="924" type="line"/>
      <point x="768" y="916" type="line"/>
      <point x="569" y="779" type="line"/>
      <point x="465" y="918" type="line"/>
      <point x="475" y="926" type="line"/>
    </contour>
  </outline>
</glyph>
<glyph name="Dcaron" format="2">
  <advance width="597"/>
  <unicode hex="010E"/>
  <outline>
    <contour>
      <point x="270" y="699" type="line"/>
      <point x="281" y="699" type="line"/>
      <point x="40" y="0" type="line"/>
      <point x="29" y="0" type="line"/>
    </contour>
    <contour>
      <point x="182" y="0" type="curve" smooth="yes"/>
      <point x="35" y="0" type="line"/>
      <point x="39" y="11" type="line"/>
      <point x="184" y="11" type="line" smooth="yes"/>
      <point x="382" y="17"/>
      <point x="543" y="168"/>
      <point x="605" y="350" type="curve" smooth="yes"/>
      <point x="661" y="513"/>
      <point x="609" y="681"/>
      <point x="417" y="689" type="curve" smooth="yes"/>
      <point x="270" y="689" type="line"/>
      <point x="274" y="700" type="line"/>
      <point x="419" y="700" type="line" smooth="yes"/>
      <point x="617" y="693"/>
      <point x="673" y="518"/>
      <point x="616" y="350" type="curve" smooth="yes"/>
      <point x="553" y="163"/>
      <point x="386" y="6"/>
    </contour>
    <contour>
      <point x="520" y="811" type="line"/>
      <point x="711" y="944" type="line"/>
      <point x="717" y="936" type="line"/>
      <point x="518" y="799" type="line"/>
      <point x="414" y="938" type="line"/>
      <point x="423" y="946" type="line"/>
    </contour>
  </outline>
</glyph>
<glyph name="Emacron" format="2">
  <advance width="479"/>
  <unicode hex="0112"/>
  <outline>
    <contour>
      <point x="32" y="0" type="line"/>
      <point x="35" y="10" type="line"/>
      <point x="354" y="10" type="line"/>
      <point x="351" y="0" type="line"/>
    </contour>
    <contour>
      <point x="268" y="690" type="line"/>
      <point x="271" y="700" type="line"/>
      <point x="589" y="700" type="line"/>
      <point x="586" y="690" type="line"/>
    </contour>
    <contour>
      <point x="163" y="384" type="line"/>
      <point x="167" y="394" type="line"/>
      <point x="466" y="394" type="line"/>
      <point x="463" y="384" type="line"/>
    </contour>
    <contour>
      <point x="270" y="699" type="line"/>
      <point x="281" y="699" type="line"/>
      <point x="40" y="0" type="line"/>
      <point x="29" y="0" type="line"/>
    </contour>
    <contour>
      <point x="329" y="835" type="line"/>
      <point x="333" y="845" type="line"/>
      <point x="662" y="845" type="line"/>
      <point x="659" y="835" type="line"/>
    </contour>
  </outline>
</glyph>
<glyph name="Edotaccent" format="2">
  <advance width="479"/>
  <unicode hex="0116"/>
  <outline>
    <contour>
      <point x="32" y="0" type="line"/>
      <point x="35" y="10" type="line"/>
      <point x="354" y="10" type="line"/>
      <point x="351" y="0" type="line"/>
    </contour>
    <contour>
      <point x="268" y="690" type="line"/>
      <point x="271" y="700" type="line"/>
      <point x="589" y="700" type="line"/>
      <point x="586" y="690" type="line"/>
    </contour>
    <contour>
      <point x="163" y="384" type="line"/>
      <point x="167" y="394" type="line"/>
      <point x="466" y="394" type="line"/>
      <point x="463" y="384" type="line"/>
    </contour>
    <contour>
      <point x="270" y="699" type="line"/>
      <point x="281" y="699" type="line"/>
      <point x="40" y="0" type="line"/>
      <point x="29" y="0" type="line"/>
    </contour>
    <contour>
      <point x="446" y="779" type="curve" smooth="yes"/>
      <point x="447" y="783"/>
      <point x="455" y="790"/>
      <point x="460" y="790" type="curve" smooth="yes"/>
      <point x="465" y="790"/>
      <point x="468" y="784"/>
      <point x="467" y="779" type="curve" smooth="yes"/>
      <point x="466" y="775"/>
      <point x="458" y="768"/>
      <point x="453" y="768" type="curve" smooth="yes"/>
      <point x="448" y="768"/>
      <point x="445" y="774"/>
    </contour>
  </outline>
</glyph>
<glyph name="eogonek" format="2">
  <advance width="472"/>
  <unicode hex="0119"/>
  <outline>
    <contour>
      <point x="85" y="228" type="line"/>
      <point x="88" y="238" type="line"/>
      <point x="457" y="238" type="line"/>
      <point x="493" y="321"/>
      <point x="473" y="456"/>
      <point x="349" y="458" type="curve" smooth="yes"/>
      <point x="221" y="460"/>
      <point x="125" y="338"/>
      <point x="88" y="234" type="curve"/>
      <point x="89" y="233" type="line"/>
      <point x="66" y="137"/>
      <point x="76.002" y="3.09668"/>
      <point x="200" y="1" type="curve" smooth="yes"/>
      <point x="282.994" y="-0.40332"/>
      <point x="357" y="54"/>
      <point x="416" y="112" type="curve"/>
      <point x="423" y="105" type="line"/>
      <point x="362" y="44"/>
      <point x="289.02" y="-9.70312"/>
      <point x="199" y="-9" type="curve" smooth="yes"/>
      <point x="71" y="-8"/>
      <point x="50" y="132"/>
      <point x="79" y="232" type="curve" smooth="yes"/>
      <point x="87" y="258"/>
      <point x="98" y="284"/>
      <point x="112" y="308" type="curve" smooth="yes"/>
      <point x="160" y="390"/>
      <point x="248" y="470"/>
      <point x="349" y="469" type="curve" smooth="yes"/>
      <point x="464" y="467"/>
      <point x="502" y="350"/>
      <point x="474" y="254" type="curve" smooth="yes"/>
      <point x="471" y="245"/>
      <point x="467" y="236"/>
      <point x="464" y="228" type="curve"/>
    </contour>
    <contour>
      <point x="412.0" y="-121.0" type="curve"/>
      <point x="417.0" y="-128.0" type="line"/>
      <point x="385.0" y="-148.0"/>
      <point x="352.0" y="-167.0"/>
      <point x="313.0" y="-166.0" type="curve" smooth="yes"/>
      <point x="266.0" y="-165.0"/>
      <point x="231.099278990108" y="-137.79361550928672"/>
      <point x="239.0" y="-86.0" type="curve" smooth="yes"/>
      <point x="248.0" y="-27.0"/>
      <point x="318.0" y="9.0"/>
      <point x="420.0" y="107.0" type="curve"/>
      <point x="423.0" y="105.0" type="line"/>
      <point x="325.0" y="6.0"/>
      <point x="256.0" y="-32.0"/>
      <point x="248.0" y="-87.0" type="curve" smooth="yes"/>
      <point x="241.5051381216363" y="-131.6521754137569"/>
      <point x="274.0" y="-155.0"/>
      <point x="314.0" y="-156.0" type="curve" smooth="yes"/>
      <point x="350.0" y="-157.0"/>
      <point x="382.0" y="-139.0"/>
    </contour>
  </outline>
</glyph>
<glyph name="Gcircumflex" format="2">
  <advance width="719"/>
  <unicode hex="011C"/>
  <outline>
    <contour>
      <point x="454" y="330" type="line"/>
      <point x="457" y="340" type="line"/>
      <point x="730" y="339" type="line"/>
      <point x="660" y="169"/>
      <point x="511" y="-7"/>
      <point x="311" y="-7" type="curve" smooth="yes"/>
      <point x="113" y="-7"/>
      <point x="58" y="188"/>
      <point x="112" y="350" type="curve" smooth="yes"/>
      <point x="173" y="533"/>
      <point x="350" y="709"/>
      <point x="553" y="708" type="curve" smooth="yes"/>
      <point x="656" y="708"/>
      <point x="727" y="649"/>
      <point x="765" y="556" type="curve"/>
      <point x="754" y="550" type="line"/>
      <point x="723" y="642"/>
      <point x="650" y="697"/>
      <point x="552" y="697" type="curve" smooth="yes"/>
      <point x="354" y="698"/>
      <point x="184" y="528"/>
      <point x="123" y="350" type="curve" smooth="yes"/>
      <point x="70" y="194"/>
      <point x="120" y="4"/>
      <point x="313" y="4" type="curve" smooth="yes"/>
      <point x="504" y="4"/>
      <point x="646" y="169"/>
      <point x="717" y="329" type="curve"/>
    </contour>
    <contour>
      <point x="622" y="902" type="line"/>
      <point x="430" y="770" type="line"/>
      <point x="425" y="777" type="line"/>
      <point x="624" y="914" type="line"/>
      <point x="729" y="775" type="line"/>
      <point x="720" y="768" type="line"/>
    </contour>
  </outline>
</glyph>
<glyph name="Gbreve" format="2">
  <advance width="719"/>
  <unicode hex="011E"/>
  <outline>
    <contour>
      <point x="454" y="330" type="line"/>
      <point x="457" y="340" type="line"/>
      <point x="730" y="339" type="line"/>
      <point x="660" y="169"/>
      <point x="511" y="-7"/>
      <point x="311" y="-7" type="curve" smooth="yes"/>
      <point x="113" y="-7"/>
      <point x="58" y="188"/>
      <point x="112" y="350" type="curve" smooth="yes"/>
      <point x="173" y="533"/>
      <point x="350" y="709"/>
      <point x="553" y="708" type="curve" smooth="yes"/>
      <point x="656" y="708"/>
      <point x="727" y="649"/>
      <point x="765" y="556" type="curve"/>
      <point x="754" y="550" type="line"/>
      <point x="723" y="642"/>
      <point x="650" y="697"/>
      <point x="552" y="697" type="curve" smooth="yes"/>
      <point x="354" y="698"/>
      <point x="184" y="528"/>
      <point x="123" y="350" type="curve" smooth="yes"/>
      <point x="70" y="194"/>
      <point x="120" y="4"/>
      <point x="313" y="4" type="curve" smooth="yes"/>
      <point x="504" y="4"/>
      <point x="646" y="169"/>
      <point x="717" y="329" type="curve"/>
    </contour>
    <contour>
      <point x="474" y="908" type="curve"/>
      <point x="484" y="908" type="line"/>
      <point x="472" y="838"/>
      <point x="498" y="780"/>
      <point x="577" y="779" type="curve" smooth="yes"/>
      <point x="661" y="778"/>
      <point x="724" y="838"/>
      <point x="763" y="906" type="curve"/>
      <point x="773" y="906" type="line"/>
      <point x="733" y="831"/>
      <point x="666" y="768"/>
      <point x="576" y="769" type="curve" smooth="yes"/>
      <point x="490" y="770"/>
      <point x="460" y="831"/>
    </contour>
  </outline>
</glyph>
<glyph name="Hbar" format="2">
  <advance width="608"/>
  <unicode hex="0126"/>
  <outline>
    <contour>
      <point x="162" y="377" type="line"/>
      <point x="165" y="387" type="line"/>
      <point x="598" y="387" type="line"/>
      <point x="595" y="377" type="line"/>
    </contour>
    <contour>
      <point x="699" y="699" type="line"/>
      <point x="710" y="699" type="line"/>
      <point x="469" y="0" type="line"/>
      <point x="458" y="0" type="line"/>
    </contour>
    <contour>
      <point x="270" y="699" type="line"/>
      <point x="281" y="699" type="line"/>
      <point x="40" y="0" type="line"/>
      <point x="29" y="0" type="line"/>
    </contour>
    <contour>
      <point x="157" y="605" type="line"/>
      <point x="160" y="615" type="line"/>
      <point x="760" y="615" type="line"/>
      <point x="757" y="605" type="line"/>
    </contour>
  </outline>
</glyph>
<glyph name="Itilde" format="2">
  <advance width="169"/>
  <unicode hex="0128"/>
  <outline>
    <contour>
      <point x="266" y="699" type="line"/>
      <point x="276" y="699" type="line"/>
      <point x="34" y="0" type="line"/>
      <point x="24" y="0" type="line"/>
    </contour>
    <contour>
      <point x="204" y="832" type="line"/>
      <point x="223" y="859"/>
      <point x="246" y="888"/>
      <point x="283" y="888" type="curve" smooth="yes"/>
      <point x="323" y="888"/>
      <point x="344" y="841"/>
      <point x="384" y="843" type="curve" smooth="yes"/>
      <point x="413" y="844"/>
      <point x="435" y="870"/>
      <point x="454" y="889" type="curve"/>
      <point x="463" y="886" type="line"/>
      <point x="442" y="864"/>
      <point x="416" y="835"/>
      <point x="382" y="835" type="curve" smooth="yes"/>
      <point x="343" y="835"/>
      <point x="323" y="879"/>
      <point x="284" y="880" type="curve" smooth="yes"/>
      <point x="251" y="881"/>
      <point x="230" y="855"/>
      <point x="213" y="831" type="curve"/>
    </contour>
  </outline>
</glyph>
<glyph name="itilde" format="2">
  <advance width="178"/>
  <unicode hex="0129"/>
  <outline>
    <contour>
      <point x="189" y="459" type="line"/>
      <point x="198" y="459" type="line"/>
      <point x="39" y="0" type="line"/>
      <point x="29" y="0" type="line"/>
    </contour>
    <contour>
      <point x="129" y="592" type="line"/>
      <point x="148" y="619"/>
      <point x="171" y="648"/>
      <point x="208" y="648" type="curve" smooth="yes"/>
      <point x="248" y="648"/>
      <point x="268" y="601"/>
      <point x="308" y="603" type="curve" smooth="yes"/>
      <point x="337" y="604"/>
      <point x="360" y="630"/>
      <point x="379" y="649" type="curve"/>
      <point x="387" y="646" type="line"/>
      <point x="366" y="624"/>
      <point x="341" y="595"/>
      <point x="307" y="595" type="curve" smooth="yes"/>
      <point x="268" y="595"/>
      <point x="248" y="639"/>
      <point x="209" y="640" type="curve" smooth="yes"/>
      <point x="176" y="641"/>
      <point x="155" y="615"/>
      <point x="138" y="591" type="curve"/>
    </contour>
  </outline>
</glyph>
<glyph name="Idotaccent" format="2">
  <advance width="169"/>
  <unicode hex="0130"/>
  <outline>
    <contour>
      <point x="266" y="699" type="line"/>
      <point x="276" y="699" type="line"/>
      <point x="34" y="0" type="line"/>
      <point x="24" y="0" type="line"/>
    </contour>
    <contour>
      <point x="288" y="786" type="curve" smooth="yes"/>
      <point x="289" y="790"/>
      <point x="297" y="797"/>
      <point x="302" y="797" type="curve" smooth="yes"/>
      <point x="307" y="797"/>
      <point x="310" y="791"/>
      <point x="309" y="786" type="curve" smooth="yes"/>
      <point x="308" y="782"/>
      <point x="300" y="775"/>
      <point x="295" y="775" type="curve" smooth="yes"/>
      <point x="290" y="775"/>
      <point x="287" y="781"/>
    </contour>
  </outline>
</glyph>
<glyph name="kgreenlandic" format="2">
  <advance width="350"/>
  <unicode hex="0138"/>
  <outline>
    <contour>
      <point x="179" y="459" type="line"/>
      <point x="189" y="459" type="line"/>
      <point x="29" y="0" type="line"/>
      <point x="19" y="0" type="line"/>
    </contour>
    <contour>
      <point x="411" y="458" type="line"/>
      <point x="427" y="458" type="line"/>
      <point x="133" y="270" type="line"/>
      <point x="287" y="0" type="line"/>
      <point x="274" y="0" type="line"/>
      <point x="120" y="271" type="line"/>
    </contour>
  </outline>
</glyph>
<glyph name="Lacute" format="2">
  <advance width="404"/>
  <unicode hex="0139"/>
  <outline>
    <contour>
      <point x="270" y="699" type="line"/>
      <point x="280" y="699" type="line"/>
      <point x="43" y="10" type="line"/>
      <point x="335" y="10" type="line"/>
      <point x="332" y="0" type="line"/>
      <point x="30" y="0" type="line"/>
    </contour>
    <contour>
      <point x="664" y="923" type="line"/>
      <point x="444" y="770" type="line"/>
      <point x="442" y="775" type="line"/>
      <point x="658" y="931" type="line"/>
    </contour>
  </outline>
</glyph>
<glyph name="uni013B" format="2">
  <advance width="404"/>
  <unicode hex="013B"/>
  <outline>
    <contour>
      <point x="270" y="699" type="line"/>
      <point x="280" y="699" type="line"/>
      <point x="43" y="10" type="line"/>
      <point x="335" y="10" type="line"/>
      <point x="332" y="0" type="line"/>
      <point x="30" y="0" type="line"/>
    </contour>
    <contour>
      <point x="168" y="-62" type="line"/>
      <point x="178" y="-67" type="line"/>
      <point x="-14" y="-313" type="line"/>
      <point x="-20" y="-311" type="line"/>
    </contour>
  </outline>
</glyph>
<glyph name="uni013C" format="2">
  <advance width="169"/>
  <unicode hex="013C"/>
  <outline>
    <contour>
      <point x="293" y="779" type="line"/>
      <point x="303" y="779" type="line"/>
      <point x="34" y="0" type="line"/>
      <point x="24" y="0" type="line"/>
    </contour>
    <contour>
      <point x="37" y="-62" type="line"/>
      <point x="46" y="-67" type="line"/>
      <point x="-146" y="-313" type="line"/>
      <point x="-152" y="-311" type="line"/>
    </contour>
  </outline>
</glyph>
<glyph name="Lcaron" format="2">
  <advance width="404"/>
  <unicode hex="013D"/>
  <outline>
    <contour>
      <point x="270" y="699" type="line"/>
      <point x="280" y="699" type="line"/>
      <point x="43" y="10" type="line"/>
      <point x="335" y="10" type="line"/>
      <point x="332" y="0" type="line"/>
      <point x="30" y="0" type="line"/>
    </contour>
    <contour>
      <point x="513" y="706" type="line"/>
      <point x="523" y="701" type="line"/>
      <point x="331" y="455" type="line"/>
      <point x="325" y="457" type="line"/>
    </contour>
  </outline>
</glyph>
<glyph name="lcaron" format="2">
  <advance width="216"/>
  <unicode hex="013E"/>
  <outline>
    <contour>
      <point x="293" y="779" type="line"/>
      <point x="303" y="779" type="line"/>
      <point x="34" y="0" type="line"/>
      <point x="24" y="0" type="line"/>
    </contour>
    <contour>
      <point x="509" y="762" type="line"/>
      <point x="519" y="757" type="line"/>
      <point x="326" y="511" type="line"/>
      <point x="320" y="513" type="line"/>
    </contour>
  </outline>
</glyph>
<glyph name="Lslash" format="2">
  <advance width="352"/>
  <unicode hex="0141"/>
  <outline>
    <contour>
      <point x="69" y="388" type="line"/>
      <point x="66" y="397" type="line"/>
      <point x="379" y="564" type="line"/>
      <point x="382" y="555" type="line"/>
    </contour>
    <contour>
      <point x="261" y="699" type="line"/>
      <point x="272" y="699" type="line"/>
      <point x="35" y="10" type="line"/>
      <point x="293" y="10" type="line"/>
      <point x="289" y="0" type="line"/>
      <point x="20" y="0" type="line"/>
    </contour>
  </outline>
</glyph>
<glyph name="racute" format="2">
  <advance width="272"/>
  <unicode hex="0155"/>
  <outline>
    <contour>
      <point x="194" y="459" type="line"/>
      <point x="34" y="0" type="line"/>
      <point x="24" y="0" type="line"/>
      <point x="184" y="459" type="line"/>
    </contour>
    <contour>
      <point x="351" y="440" type="line"/>
      <point x="336" y="449"/>
      <point x="322" y="458"/>
      <point x="304" y="459" type="curve" smooth="yes"/>
      <point x="213" y="464"/>
      <point x="159" y="349"/>
      <point x="129" y="281" type="curve"/>
      <point x="124" y="281" type="line"/>
      <point x="155" y="354"/>
      <point x="208" y="476"/>
      <point x="305" y="469" type="curve" smooth="yes"/>
      <point x="325" y="468"/>
      <point x="341" y="457"/>
      <point x="358" y="447" type="curve"/>
    </contour>
    <contour>
      <point x="479" y="685" type="line"/>
      <point x="260" y="532" type="line"/>
      <point x="257" y="537" type="line"/>
      <point x="473" y="693" type="line"/>
    </contour>
  </outline>
</glyph>
<glyph name="sacute" format="2">
  <advance width="379"/>
  <unicode hex="015B"/>
  <outline>
    <contour>
      <point x="43" y="147" type="line"/>
      <point x="37" y="80"/>
      <point x="46" y="1"/>
      <point x="131" y="0" type="curve" smooth="yes"/>
      <point x="198" y="-1"/>
      <point x="269" y="53"/>
      <point x="289" y="117" type="curve" smooth="yes"/>
      <point x="309" y="180"/>
      <point x="262" y="210"/>
      <point x="211" y="231" type="curve" smooth="yes"/>
      <point x="152" y="256"/>
      <point x="106" y="288"/>
      <point x="131" y="359" type="curve" smooth="yes"/>
      <point x="154" y="423"/>
      <point x="223" y="468"/>
      <point x="290" y="467" type="curve" smooth="yes"/>
      <point x="353" y="466"/>
      <point x="376" y="424"/>
      <point x="383" y="368" type="curve"/>
      <point x="373" y="365" type="line"/>
      <point x="366" y="416"/>
      <point x="347" y="456"/>
      <point x="289" y="457" type="curve" smooth="yes"/>
      <point x="228" y="458"/>
      <point x="161" y="417"/>
      <point x="140" y="359" type="curve" smooth="yes"/>
      <point x="115" y="291"/>
      <point x="163" y="263"/>
      <point x="218" y="240" type="curve" smooth="yes"/>
      <point x="273" y="217"/>
      <point x="319" y="183"/>
      <point x="299" y="117" type="curve" smooth="yes"/>
      <point x="278" y="47"/>
      <point x="203" y="-10"/>
      <point x="130" y="-9" type="curve" smooth="yes"/>
      <point x="39" y="-8"/>
      <point x="26" y="70"/>
      <point x="33" y="144" type="curve"/>
    </contour>
    <contour>
      <point x="513" y="685" type="line"/>
      <point x="296" y="532" type="line"/>
      <point x="291" y="537" type="line"/>
      <point x="507" y="693" type="line"/>
    </contour>
  </outline>
</glyph>
<glyph name="tcaron" format="2">
  <advance width="263"/>
  <unicode hex="0165"/>
  <outline>
    <contour>
      <point x="117" y="460" type="line"/>
      <point x="268" y="460" type="line"/>
      <point x="264" y="450" type="line"/>
      <point x="113" y="450" type="line"/>
    </contour>
    <contour>
      <point x="243" y="619" type="line"/>
      <point x="253" y="619" type="line"/>
      <point x="39" y="0" type="line"/>
      <point x="29" y="0" type="line"/>
    </contour>
    <contour>
      <point x="469" y="773" type="line"/>
      <point x="479" y="768" type="line"/>
      <point x="287" y="522" type="line"/>
      <point x="281" y="524" type="line"/>
    </contour>
  </outline>
</glyph>
<glyph name="Umacron" format="2">
  <advance width="541"/>
  <unicode hex="016A"/>
  <outline>
    <contour>
      <point x="266" y="699" type="line"/>
      <point x="276" y="699" type="line"/>
      <point x="111" y="220" type="line" smooth="yes"/>
      <point x="81" y="124"/>
      <point x="90" y="3"/>
      <point x="216" y="2" type="curve" smooth="yes"/>
      <point x="342" y="1"/>
      <point x="432" y="112"/>
      <point x="472" y="220" type="curve" smooth="yes"/>
      <point x="637" y="699" type="line"/>
      <point x="648" y="699" type="line"/>
      <point x="484" y="220" type="line" smooth="yes"/>
      <point x="442" y="104"/>
      <point x="349" y="-10"/>
      <point x="215" y="-9" type="curve" smooth="yes"/>
      <point x="81" y="-8"/>
      <point x="69" y="116"/>
      <point x="101" y="220" type="curve" smooth="yes"/>
    </contour>
    <contour>
      <point x="314" y="768" type="line"/>
      <point x="317" y="778" type="line"/>
      <point x="647" y="778" type="line"/>
      <point x="644" y="768" type="line"/>
    </contour>
  </outline>
</glyph>
<glyph name="ubreve" format="2">
  <advance width="446"/>
  <unicode hex="016D"/>
  <outline>
    <contour>
      <point x="302" y="0" type="line"/>
      <point x="461" y="459" type="line"/>
      <point x="471" y="459" type="line"/>
      <point x="312" y="0" type="line"/>
    </contour>
    <contour>
      <point x="86" y="150" type="line" smooth="yes"/>
      <point x="66" y="86"/>
      <point x="62" y="2"/>
      <point x="150" y="1" type="curve" smooth="yes"/>
      <point x="252" y="-1"/>
      <point x="325" y="96"/>
      <point x="366" y="178" type="curve"/>
      <point x="372" y="178" type="line"/>
      <point x="331" y="91"/>
      <point x="256" y="-11"/>
      <point x="148" y="-9" type="curve" smooth="yes"/>
      <point x="53" y="-8"/>
      <point x="54" y="80"/>
      <point x="76" y="150" type="curve" smooth="yes"/>
      <point x="184" y="459" type="line"/>
      <point x="194" y="459" type="line"/>
    </contour>
    <contour>
      <point x="250" y="670" type="curve"/>
      <point x="259" y="670" type="line"/>
      <point x="247" y="600"/>
      <point x="273" y="542"/>
      <point x="352" y="541" type="curve" smooth="yes"/>
      <point x="436" y="540"/>
      <point x="499" y="600"/>
      <point x="538" y="668" type="curve"/>
      <point x="548" y="668" type="line"/>
      <point x="508" y="593"/>
      <point x="441" y="530"/>
      <point x="351" y="531" type="curve" smooth="yes"/>
      <point x="265" y="532"/>
      <point x="236" y="593"/>
    </contour>
  </outline>
</glyph>
<glyph name="Uring" format="2">
  <advance width="541"/>
  <unicode hex="016E"/>
  <outline>
    <contour>
      <point x="266" y="699" type="line"/>
      <point x="276" y="699" type="line"/>
      <point x="111" y="220" type="line" smooth="yes"/>
      <point x="81" y="124"/>
      <point x="90" y="3"/>
      <point x="216" y="2" type="curve" smooth="yes"/>
      <point x="342" y="1"/>
      <point x="432" y="112"/>
      <point x="472" y="220" type="curve" smooth="yes"/>
      <point x="637" y="699" type="line"/>
      <point x="648" y="699" type="line"/>
      <point x="484" y="220" type="line" smooth="yes"/>
      <point x="442" y="104"/>
      <point x="349" y="-10"/>
      <point x="215" y="-9" type="curve" smooth="yes"/>
      <point x="81" y="-8"/>
      <point x="69" y="116"/>
      <point x="101" y="220" type="curve" smooth="yes"/>
    </contour>
    <contour>
      <point x="416" y="869" type="curve" smooth="yes"/>
      <point x="433" y="920"/>
      <point x="492" y="968"/>
      <point x="547" y="967" type="curve" smooth="yes"/>
      <point x="601" y="966"/>
      <point x="626" y="915"/>
      <point x="610" y="867" type="curve" smooth="yes"/>
      <point x="593" y="816"/>
      <point x="534" y="768"/>
      <point x="479" y="769" type="curve" smooth="yes"/>
      <point x="425" y="770"/>
      <point x="400" y="821"/>
    </contour>
    <contour>
      <point x="426" y="868" type="curve" smooth="yes"/>
      <point x="412" y="826"/>
      <point x="433" y="781"/>
      <point x="481" y="779" type="curve" smooth="yes"/>
      <point x="530" y="777"/>
      <point x="585" y="823"/>
      <point x="600" y="868" type="curve" smooth="yes"/>
      <point x="614" y="910"/>
      <point x="593" y="955"/>
      <point x="545" y="957" type="curve" smooth="yes"/>
      <point x="496" y="959"/>
      <point x="441" y="913"/>
    </contour>
  </outline>
</glyph>
<glyph name="uring" format="2">
  <advance width="446"/>
  <unicode hex="016F"/>
  <outline>
    <contour>
      <point x="302" y="0" type="line"/>
      <point x="461" y="459" type="line"/>
      <point x="471" y="459" type="line"/>
      <point x="312" y="0" type="line"/>
    </contour>
    <contour>
      <point x="86" y="150" type="line" smooth="yes"/>
      <point x="66" y="86"/>
      <point x="62" y="2"/>
      <point x="150" y="1" type="curve" smooth="yes"/>
      <point x="252" y="-1"/>
      <point x="325" y="96"/>
      <point x="366" y="178" type="curve"/>
      <point x="372" y="178" type="line"/>
      <point x="331" y="91"/>
      <point x="256" y="-11"/>
      <point x="148" y="-9" type="curve" smooth="yes"/>
      <point x="53" y="-8"/>
      <point x="54" y="80"/>
      <point x="76" y="150" type="curve" smooth="yes"/>
      <point x="184" y="459" type="line"/>
      <point x="194" y="459" type="line"/>
    </contour>
    <contour>
      <point x="287" y="631" type="curve" smooth="yes"/>
      <point x="304" y="682"/>
      <point x="363" y="730"/>
      <point x="418" y="729" type="curve" smooth="yes"/>
      <point x="472" y="728"/>
      <point x="497" y="677"/>
      <point x="481" y="629" type="curve" smooth="yes"/>
      <point x="464" y="578"/>
      <point x="405" y="530"/>
      <point x="350" y="531" type="curve" smooth="yes"/>
      <point x="296" y="532"/>
      <point x="271" y="583"/>
    </contour>
    <contour>
      <point x="297" y="630" type="curve" smooth="yes"/>
      <point x="283" y="588"/>
      <point x="304" y="543"/>
      <point x="352" y="541" type="curve" smooth="yes"/>
      <point x="401" y="539"/>
      <point x="456" y="585"/>
      <point x="471" y="630" type="curve" smooth="yes"/>
      <point x="485" y="672"/>
      <point x="465" y="717"/>
      <point x="417" y="719" type="curve" smooth="yes"/>
      <point x="368" y="721"/>
      <point x="312" y="675"/>
    </contour>
  </outline>
</glyph>
<glyph name="Wcircumflex" format="2">
  <advance width="893"/>
  <unicode hex="0174"/>
  <outline>
    <contour>
      <point x="626" y="27" type="line"/>
      <point x="1047" y="699" type="line"/>
      <point x="1058" y="699" type="line"/>
      <point x="614" y="-16" type="line"/>
      <point x="622" y="676" type="line"/>
      <point x="200" y="-16" type="line"/>
      <point x="200" y="700" type="line"/>
      <point x="211" y="700" type="line"/>
      <point x="212" y="27" type="line"/>
      <point x="634" y="716" type="line"/>
    </contour>
    <contour>
      <point x="703.389" y="910" type="line"/>
      <point x="511.389" y="778" type="line"/>
      <point x="506.389" y="785" type="line"/>
      <point x="705.389" y="922" type="line"/>
      <point x="809.389" y="783" type="line"/>
      <point x="801.389" y="776" type="line"/>
    </contour>
  </outline>
</glyph>
<glyph name="wcircumflex" format="2">
  <advance width="583"/>
  <unicode hex="0175"/>
  <outline>
    <contour>
      <point x="118" y="460" type="line"/>
      <point x="127" y="460" type="line"/>
      <point x="103" y="20" type="line"/>
      <point x="396" y="476" type="line"/>
      <point x="381" y="19" type="line"/>
      <point x="664" y="459" type="line"/>
      <point x="674" y="459" type="line"/>
      <point x="370" y="-16" type="line"/>
      <point x="385" y="440" type="line"/>
      <point x="91" y="-16" type="line"/>
    </contour>
    <contour>
      <point x="465.389" y="670" type="line"/>
      <point x="273.389" y="538" type="line"/>
      <point x="268.389" y="545" type="line"/>
      <point x="467.389" y="682" type="line"/>
      <point x="571.389" y="543" type="line"/>
      <point x="563.389" y="536" type="line"/>
    </contour>
  </outline>
</glyph>
<glyph name="Ycircumflex" format="2">
  <advance width="477"/>
  <unicode hex="0176"/>
  <outline>
    <contour>
      <point x="636" y="698" type="line"/>
      <point x="649" y="698" type="line"/>
      <point x="276" y="266" type="line"/>
      <point x="184" y="0" type="line"/>
      <point x="173" y="0" type="line"/>
      <point x="266" y="267" type="line"/>
      <point x="199" y="700" type="line"/>
      <point x="211" y="700" type="line"/>
      <point x="274" y="282" type="line"/>
    </contour>
    <contour>
      <point x="477.158" y="902" type="line"/>
      <point x="285.158" y="770" type="line"/>
      <point x="280.158" y="777" type="line"/>
      <point x="479.158" y="914" type="line"/>
      <point x="583.158" y="775" type="line"/>
      <point x="575.158" y="768" type="line"/>
    </contour>
  </outline>
</glyph>
<glyph name="zdotaccent" format="2">
  <advance width="404"/>
  <unicode hex="017C"/>
  <outline>
    <contour>
      <point x="455" y="449" type="line"/>
      <point x="137" y="450" type="line"/>
      <point x="140" y="460" type="line"/>
      <point x="480" y="459" type="line"/>
      <point x="-12" y="11" type="line"/>
      <point x="335" y="10" type="line"/>
      <point x="332" y="0" type="line"/>
      <point x="-37" y="0" type="line"/>
    </contour>
    <contour>
      <point x="337" y="571" type="curve" smooth="yes"/>
      <point x="338" y="575"/>
      <point x="346" y="582"/>
      <point x="351" y="582" type="curve" smooth="yes"/>
      <point x="356" y="582"/>
      <point x="359" y="576"/>
      <point x="358" y="571" type="curve" smooth="yes"/>
      <point x="357" y="567"/>
      <point x="349" y="560"/>
      <point x="344" y="560" type="curve" smooth="yes"/>
      <point x="339" y="560"/>
      <point x="336" y="566"/>
    </contour>
  </outline>
</glyph>
<glyph name="Zcaron" format="2">
  <advance width="503"/>
  <unicode hex="017D"/>
  <outline>
    <contour>
      <point x="218" y="689" type="line"/>
      <point x="222" y="700" type="line"/>
      <point x="675" y="699" type="line"/>
      <point x="-10" y="12" type="line"/>
      <point x="430" y="11" type="line"/>
      <point x="426" y="0" type="line"/>
      <point x="-37" y="0" type="line"/>
      <point x="649" y="688" type="line"/>
    </contour>
    <contour>
      <point x="474" y="781" type="line"/>
      <point x="665" y="914" type="line"/>
      <point x="671" y="906" type="line"/>
      <point x="472" y="769" type="line"/>
      <point x="368" y="908" type="line"/>
      <point x="377" y="916" type="line"/>
    </contour>
  </outline>
</glyph>
<glyph name="circumflex" format="2">
  <advance width="451"/>
  <unicode hex="02C6"/>
  <outline>
    <contour>
      <point x="418" y="717" type="line"/>
      <point x="226" y="585" type="line"/>
      <point x="221" y="592" type="line"/>
      <point x="420" y="729" type="line"/>
      <point x="524" y="590" type="line"/>
      <point x="516" y="583" type="line"/>
    </contour>
  </outline>
</glyph>
<glyph name="ring" format="2">
  <advance width="261"/>
  <unicode hex="02DA"/>
  <outline>
    <contour>
      <point x="248" y="786" type="curve" smooth="yes"/>
      <point x="265" y="837"/>
      <point x="323" y="885"/>
      <point x="378" y="884" type="curve" smooth="yes"/>
      <point x="432" y="883"/>
      <point x="457" y="832"/>
      <point x="441" y="784" type="curve" smooth="yes"/>
      <point x="424" y="733"/>
      <point x="366" y="685"/>
      <point x="311" y="686" type="curve" smooth="yes"/>
      <point x="257" y="687"/>
      <point x="232" y="738"/>
    </contour>
    <contour>
      <point x="257" y="785" type="curve" smooth="yes"/>
      <point x="243" y="743"/>
      <point x="264" y="698"/>
      <point x="312" y="696" type="curve" smooth="yes"/>
      <point x="361" y="694"/>
      <point x="417" y="740"/>
      <point x="432" y="785" type="curve" smooth="yes"/>
      <point x="446" y="827"/>
      <point x="425" y="872"/>
      <point x="377" y="874" type="curve" smooth="yes"/>
      <point x="328" y="876"/>
      <point x="272" y="830"/>
    </contour>
  </outline>
</glyph>
<glyph name="acutecomb" format="2">
  <unicode hex="0301"/>
  <outline>
    <contour>
      <point x="134" y="534" type="line"/>
      <point x="126" y="540" type="line"/>
      <point x="349" y="700" type="line"/>
      <point x="360" y="691" type="line"/>
    </contour>
  </outline>
</glyph>
<glyph name="uni0304" format="2">
  <unicode hex="0304"/>
  <outline>
    <contour>
      <point x="153" y="665" type="line"/>
      <point x="156" y="675" type="line"/>
      <point x="506" y="675" type="line"/>
      <point x="503" y="665" type="line"/>
    </contour>
  </outline>
</glyph>
<glyph name="uni0306" format="2">
  <unicode hex="0306"/>
  <outline>
    <contour>
      <point x="284" y="585" type="curve" smooth="yes"/>
      <point x="192" y="585"/>
      <point x="143" y="635"/>
      <point x="166" y="705" type="curve"/>
      <point x="176" y="705" type="line"/>
      <point x="155" y="643"/>
      <point x="201" y="596"/>
      <point x="285" y="596" type="curve" smooth="yes"/>
      <point x="369" y="596"/>
      <point x="451" y="643"/>
      <point x="472" y="705" type="curve"/>
      <point x="482" y="705" type="line"/>
      <point x="459" y="635"/>
      <point x="376" y="585"/>
    </contour>
  </outline>
</glyph>
<glyph name="uni030A" format="2">
  <unicode hex="030A"/>
  <outline>
    <contour>
      <point x="209" y="530" type="curve" smooth="yes"/>
      <point x="153" y="530"/>
      <point x="122" y="574"/>
      <point x="141" y="630" type="curve" smooth="yes"/>
      <point x="160" y="686"/>
      <point x="220" y="730"/>
      <point x="276" y="730" type="curve" smooth="yes"/>
      <point x="332" y="730"/>
      <point x="364" y="686"/>
      <point x="345" y="630" type="curve" smooth="yes"/>
      <point x="326" y="574"/>
      <point x="265" y="530"/>
    </contour>
    <contour>
      <point x="209" y="539" type="curve" smooth="yes"/>
      <point x="260" y="539"/>
      <point x="318" y="580"/>
      <point x="335" y="630" type="curve" smooth="yes"/>
      <point x="352" y="680"/>
      <point x="326" y="720"/>
      <point x="275" y="720" type="curve" smooth="yes"/>
      <point x="224" y="720"/>
      <point x="168" y="680"/>
      <point x="151" y="630" type="curve" smooth="yes"/>
      <point x="134" y="580"/>
      <point x="158" y="539"/>
    </contour>
  </outline>
</glyph>
<glyph name="uni030C" format="2">
  <unicode hex="030C"/>
  <outline>
    <contour>
      <point x="285" y="583" type="line"/>
      <point x="172" y="723" type="line"/>
      <point x="181" y="730" type="line"/>
      <point x="290" y="593" type="line"/>
      <point x="284" y="594" type="line"/>
      <point x="485" y="731" type="line"/>
      <point x="492" y="723" type="line"/>
    </contour>
  </outline>
</glyph>
<glyph name="uni0312" format="2">
  <unicode hex="0312"/>
  <outline>
    <contour>
      <point x="115" y="519" type="line"/>
      <point x="105" y="524" type="line"/>
      <point x="299" y="774" type="line"/>
      <point x="304" y="772" type="line"/>
    </contour>
  </outline>
</glyph>
<glyph name="uni0328" format="2">
  <unicode hex="0328"/>
  <outline>
    <contour>
      <point x="-41" y="-220" type="curve" smooth="yes"/>
      <point x="-105" y="-220"/>
      <point x="-133" y="-189"/>
      <point x="-117" y="-140" type="curve" smooth="yes"/>
      <point x="-94" y="-71"/>
      <point x="4" y="-26"/>
      <point x="86" y="10" type="curve"/>
      <point x="90" y="0" type="line"/>
      <point x="11" y="-32"/>
      <point x="-88" y="-83"/>
      <point x="-107" y="-140" type="curve" smooth="yes"/>
      <point x="-122" y="-186"/>
      <point x="-91" y="-210"/>
      <point x="-41" y="-210" type="curve" smooth="yes"/>
      <point x="-1" y="-210"/>
      <point x="44" y="-191"/>
      <point x="65" y="-173" type="curve"/>
      <point x="71" y="-180" type="line"/>
      <point x="49" y="-200"/>
      <point x="2" y="-220"/>
    </contour>
  </outline>
</glyph>
<glyph name="uni0394" format="2">
  <advance width="600"/>
  <unicode hex="0394"/>
  <outline>
    <contour>
      <point x="-34" y="0" type="line"/>
      <point x="490" y="0" type="line"/>
      <point x="471" y="726" type="line"/>
    </contour>
    <contour>
      <point x="-15" y="9" type="line"/>
      <point x="461" y="693" type="line"/>
      <point x="479" y="9" type="line"/>
    </contour>
  </outline>
</glyph>
<glyph name="pi" format="2">
  <advance width="442"/>
  <unicode hex="03C0"/>
  <outline>
    <contour>
      <point x="185" y="449" type="line"/>
      <point x="195" y="449" type="line"/>
      <point x="39" y="0" type="line"/>
      <point x="29" y="0" type="line"/>
    </contour>
    <contour>
      <point x="131" y="460" type="line"/>
      <point x="507" y="460" type="line"/>
      <point x="504" y="450" type="line"/>
      <point x="127" y="450" type="line"/>
    </contour>
    <contour>
      <point x="420" y="449" type="line"/>
      <point x="430" y="449" type="line"/>
      <point x="316" y="121" type="line" smooth="yes"/>
      <point x="299" y="73"/>
      <point x="273" y="29"/>
      <point x="325" y="1" type="curve"/>
      <point x="322" y="-8" type="line"/>
      <point x="259" y="16"/>
      <point x="289" y="70"/>
      <point x="307" y="121" type="curve" smooth="yes"/>
    </contour>
  </outline>
</glyph>
<glyph name="uni040C" format="2">
  <advance width="531"/>
  <unicode hex="040C"/>
  <outline>
    <contour>
      <point x="266" y="699" type="line"/>
      <point x="276" y="699" type="line"/>
      <point x="35" y="0" type="line"/>
      <point x="24" y="0" type="line"/>
    </contour>
    <contour>
      <point x="569" y="698" type="line"/>
      <point x="585" y="698" type="line"/>
      <point x="175" y="371" type="line"/>
      <point x="359" y="0" type="line"/>
      <point x="344" y="0" type="line"/>
      <point x="161" y="373" type="line"/>
    </contour>
    <contour>
      <point x="691" y="950" type="line"/>
      <point x="473" y="797" type="line"/>
      <point x="469" y="802" type="line"/>
      <point x="686" y="958" type="line"/>
    </contour>
  </outline>
</glyph>
<glyph name="uni0412" format="2">
  <advance width="525"/>
  <unicode hex="0412"/>
  <outline>
    <contour>
      <point x="169" y="386" type="line"/>
      <point x="171" y="394" type="line"/>
      <point x="267" y="394" type="line" smooth="yes"/>
      <point x="363" y="398"/>
      <point x="461" y="445"/>
      <point x="494" y="541" type="curve" smooth="yes"/>
      <point x="527" y="636"/>
      <point x="459" y="689"/>
      <point x="370" y="689" type="curve" smooth="yes"/>
      <point x="276" y="689" type="line"/>
      <point x="43" y="11" type="line"/>
      <point x="146" y="11" type="line" smooth="yes"/>
      <point x="265" y="11"/>
      <point x="375" y="83"/>
      <point x="413" y="200" type="curve" smooth="yes"/>
      <point x="446" y="302"/>
      <point x="376" y="384"/>
      <point x="275" y="384" type="curve" smooth="yes"/>
      <point x="168" y="384" type="line"/>
      <point x="170" y="392" type="line"/>
      <point x="285" y="392" type="line" smooth="yes"/>
      <point x="389" y="392"/>
      <point x="456" y="302"/>
      <point x="424" y="200" type="curve" smooth="yes"/>
      <point x="386" y="77"/>
      <point x="272" y="-1.56755e-14"/>
      <point x="144" y="0" type="curve" smooth="yes"/>
      <point x="29" y="0" type="line"/>
      <point x="270" y="700" type="line"/>
      <point x="372" y="700" type="line" smooth="yes"/>
      <point x="466" y="700"/>
      <point x="539" y="640"/>
      <point x="505" y="539" type="curve" smooth="yes"/>
      <point x="472" y="441"/>
      <point x="375" y="390"/>
      <point x="276" y="386" type="curve" smooth="yes"/>
    </contour>
  </outline>
</glyph>
<glyph name="uni0416" format="2">
  <advance width="602"/>
  <unicode hex="0416"/>
  <outline>
    <contour>
      <point x="217" y="700" type="line"/>
      <point x="376" y="369" type="line"/>
      <point x="-36" y="0" type="line"/>
      <point x="-53" y="0" type="line"/>
      <point x="366" y="371" type="line"/>
      <point x="205" y="700" type="line"/>
    </contour>
    <contour>
      <point x="487" y="699" type="line"/>
      <point x="497" y="699" type="line"/>
      <point x="255" y="0" type="line"/>
      <point x="245" y="0" type="line"/>
    </contour>
    <contour>
      <point x="754" y="698" type="line"/>
      <point x="771" y="698" type="line"/>
      <point x="390" y="369" type="line"/>
      <point x="542" y="0" type="line"/>
      <point x="530" y="0" type="line"/>
      <point x="380" y="371" type="line"/>
    </contour>
  </outline>
</glyph>
<glyph name="uni0418" format="2">
  <advance width="682"/>
  <unicode hex="0418"/>
  <outline>
    <contour>
      <point x="779" y="704" type="line"/>
      <point x="17" y="-34" type="line"/>
      <point x="34" y="-4" type="line"/>
      <point x="796" y="734" type="line"/>
    </contour>
    <contour>
      <point x="280" y="699" type="line"/>
      <point x="34" y="-13" type="line"/>
      <point x="17" y="-34" type="line"/>
      <point x="270" y="699" type="line"/>
    </contour>
    <contour>
      <point x="796" y="734" type="line"/>
      <point x="542" y="0" type="line"/>
      <point x="532" y="0" type="line"/>
      <point x="779" y="715" type="line"/>
    </contour>
  </outline>
</glyph>
<glyph name="uni041A" format="2">
  <advance width="531"/>
  <unicode hex="041A"/>
  <outline>
    <contour>
      <point x="266" y="699" type="line"/>
      <point x="276" y="699" type="line"/>
      <point x="35" y="0" type="line"/>
      <point x="24" y="0" type="line"/>
    </contour>
    <contour>
      <point x="569" y="698" type="line"/>
      <point x="585" y="698" type="line"/>
      <point x="174" y="370" type="line"/>
      <point x="357" y="0" type="line"/>
      <point x="344" y="0" type="line"/>
      <point x="161" y="373" type="line"/>
    </contour>
  </outline>
</glyph>
<glyph name="uni041B" format="2">
  <advance width="576"/>
  <unicode hex="041B"/>
  <outline>
    <contour>
      <point x="687" y="700" type="line"/>
      <point x="446" y="0" type="line"/>
      <point x="436" y="0" type="line"/>
      <point x="674" y="690" type="line"/>
      <point x="288" y="690" type="line"/>
      <point x="135" y="240" type="line" smooth="yes"/>
      <point x="102" y="146"/>
      <point x="58" y="31"/>
      <point x="-46" y="1" type="curve"/>
      <point x="-42" y="11" type="line"/>
      <point x="53" y="45"/>
      <point x="93" y="151"/>
      <point x="124" y="240" type="curve" smooth="yes"/>
      <point x="282" y="700" type="line"/>
    </contour>
  </outline>
</glyph>
<glyph name="uni041F" format="2">
  <advance width="602"/>
  <unicode hex="041F"/>
  <outline>
    <contour>
      <point x="700" y="690" type="line"/>
      <point x="267" y="690" type="line"/>
      <point x="29" y="0" type="line"/>
      <point x="20" y="0" type="line"/>
      <point x="260" y="700" type="line"/>
      <point x="712" y="700" type="line"/>
      <point x="472" y="0" type="line"/>
      <point x="462" y="0" type="line"/>
    </contour>
  </outline>
</glyph>
<glyph name="uni0425" format="2">
  <advance width="522"/>
  <unicode hex="0425"/>
  <outline>
    <contour>
      <point x="610" y="698" type="line"/>
      <point x="624" y="698" type="line"/>
      <point x="314" y="366" type="line"/>
      <point x="398" y="0" type="line"/>
      <point x="384" y="0" type="line"/>
      <point x="306" y="355" type="line"/>
      <point x="-23" y="0" type="line"/>
      <point x="-37" y="0" type="line"/>
      <point x="303" y="368" type="line"/>
      <point x="227" y="700" type="line"/>
      <point x="240" y="700" type="line"/>
      <point x="311" y="378" type="line"/>
    </contour>
  </outline>
</glyph>
<glyph name="uni0428" format="2">
  <advance width="855"/>
  <unicode hex="0428"/>
  <outline>
    <contour>
      <point x="720" y="10" type="line"/>
      <point x="957" y="699" type="line"/>
      <point x="967" y="699" type="line"/>
      <point x="727" y="0" type="line"/>
      <point x="20" y="0" type="line"/>
      <point x="261" y="699" type="line"/>
      <point x="271" y="699" type="line"/>
      <point x="34" y="10" type="line"/>
      <point x="372" y="10" type="line"/>
      <point x="609" y="699" type="line"/>
      <point x="619" y="699" type="line"/>
      <point x="382" y="10" type="line"/>
    </contour>
  </outline>
</glyph>
<glyph name="uni042A" format="2">
  <advance width="579"/>
  <unicode hex="042A"/>
  <outline>
    <contour>
      <point x="269" y="410" type="line"/>
      <point x="272" y="420" type="line"/>
      <point x="406" y="420" type="line" smooth="yes"/>
      <point x="525" y="420"/>
      <point x="600" y="326"/>
      <point x="560" y="208" type="curve" smooth="yes"/>
      <point x="518" y="84"/>
      <point x="393" y="0"/>
      <point x="265" y="0" type="curve" smooth="yes"/>
      <point x="129" y="0" type="line"/>
      <point x="132" y="10" type="line"/>
      <point x="266" y="10" type="line" smooth="yes"/>
      <point x="388" y="10"/>
      <point x="510" y="92"/>
      <point x="550" y="210" type="curve" smooth="yes"/>
      <point x="588" y="322"/>
      <point x="518" y="410"/>
      <point x="405" y="410" type="curve" smooth="yes"/>
    </contour>
    <contour>
      <point x="361" y="690" type="line"/>
      <point x="191" y="690" type="line"/>
      <point x="194" y="700" type="line"/>
      <point x="374" y="700" type="line"/>
      <point x="133" y="0" type="line"/>
      <point x="123" y="0" type="line"/>
    </contour>
  </outline>
</glyph>
<glyph name="uni042D" format="2">
  <advance width="644"/>
  <unicode hex="042D"/>
  <outline>
    <contour>
      <point x="216" y="345" type="line"/>
      <point x="219" y="355" type="line"/>
      <point x="653" y="355" type="line"/>
      <point x="650" y="345" type="line"/>
    </contour>
    <contour>
      <point x="651" y="350" type="curve" smooth="yes"/>
      <point x="703" y="503"/>
      <point x="663" y="692"/>
      <point x="471" y="695" type="curve" smooth="yes"/>
      <point x="383" y="696"/>
      <point x="303" y="661"/>
      <point x="230" y="615" type="curve"/>
      <point x="235" y="629" type="line"/>
      <point x="308" y="674"/>
      <point x="386" y="708"/>
      <point x="473" y="707" type="curve" smooth="yes"/>
      <point x="671" y="704"/>
      <point x="717" y="510"/>
      <point x="663" y="350" type="curve" smooth="yes"/>
      <point x="602" y="168"/>
      <point x="433" y="-6"/>
      <point x="231" y="-8" type="curve" smooth="yes"/>
      <point x="156" y="-9"/>
      <point x="96" y="17"/>
      <point x="45" y="71" type="curve"/>
      <point x="50" y="87" type="line"/>
      <point x="97" y="29"/>
      <point x="158" y="3"/>
      <point x="233" y="4" type="curve" smooth="yes"/>
      <point x="428" y="6"/>
      <point x="591" y="175"/>
    </contour>
  </outline>
</glyph>
<glyph name="uni0434" format="2">
  <advance width="616"/>
  <unicode hex="0434"/>
  <outline>
    <contour>
      <point x="414" y="470" type="line"/>
      <point x="53" y="5" type="line"/>
      <point x="42" y="5" type="line"/>
      <point x="421" y="495" type="line"/>
      <point x="466" y="5" type="line"/>
      <point x="456" y="5" type="line"/>
    </contour>
    <contour>
      <point x="512" y="0" type="line"/>
      <point x="-6" y="0" type="line"/>
      <point x="-39" y="-89" type="line"/>
      <point x="-49" y="-89" type="line"/>
      <point x="-13" y="10" type="line"/>
      <point x="524" y="10" type="line"/>
      <point x="488" y="-89" type="line"/>
      <point x="478" y="-89" type="line"/>
    </contour>
  </outline>
</glyph>
<glyph name="uni0436" format="2">
  <advance width="427"/>
  <unicode hex="0436"/>
  <outline>
    <contour>
      <point x="490" y="458" type="line"/>
      <point x="503" y="458" type="line"/>
      <point x="265" y="269" type="line"/>
      <point x="364" y="0" type="line"/>
      <point x="352" y="0" type="line"/>
      <point x="254" y="272" type="line"/>
    </contour>
    <contour>
      <point x="323" y="459" type="line"/>
      <point x="163" y="0" type="line"/>
      <point x="153" y="0" type="line"/>
      <point x="313" y="459" type="line"/>
    </contour>
    <contour>
      <point x="142" y="460" type="line"/>
      <point x="250" y="269" type="line"/>
      <point x="-33" y="0" type="line"/>
      <point x="-46" y="0" type="line"/>
      <point x="237" y="270" type="line"/>
      <point x="130" y="460" type="line"/>
    </contour>
  </outline>
</glyph>
<glyph name="uni0442" format="2">
  <advance width="263"/>
  <unicode hex="0442"/>
  <outline>
    <contour>
      <point x="107" y="460" type="line"/>
      <point x="362" y="460" type="line"/>
      <point x="358" y="450" type="line"/>
      <point x="104" y="450" type="line"/>
    </contour>
    <contour>
      <point x="229" y="454" type="line"/>
      <point x="239" y="454" type="line"/>
      <point x="81" y="0" type="line"/>
      <point x="71" y="0" type="line"/>
    </contour>
  </outline>
</glyph>
<glyph name="uni0446" format="2">
  <advance width="465"/>
  <unicode hex="0446"/>
  <outline>
    <contour>
      <point x="306" y="10" type="line"/>
      <point x="383" y="10" type="line"/>
      <point x="347" y="-89" type="line"/>
      <point x="337" y="-89" type="line"/>
      <point x="370" y="0" type="line"/>
      <point x="15" y="0" type="line"/>
      <point x="174" y="459" type="line"/>
      <point x="184" y="459" type="line"/>
      <point x="29" y="10" type="line"/>
      <point x="296" y="10" type="line"/>
      <point x="452" y="459" type="line"/>
      <point x="462" y="459" type="line"/>
    </contour>
  </outline>
</glyph>
<glyph name="uni0449" format="2">
  <advance width="705"/>
  <unicode hex="0449"/>
  <outline>
    <contour>
      <point x="287" y="10" type="line"/>
      <point x="536" y="10" type="line"/>
      <point x="692" y="459" type="line"/>
      <point x="702" y="459" type="line"/>
      <point x="547" y="10" type="line"/>
      <point x="623" y="10" type="line"/>
      <point x="587" y="-89" type="line"/>
      <point x="577" y="-89" type="line"/>
      <point x="610" y="0" type="line"/>
      <point x="15" y="0" type="line"/>
      <point x="174" y="459" type="line"/>
      <point x="184" y="459" type="line"/>
      <point x="29" y="10" type="line"/>
      <point x="278" y="10" type="line"/>
      <point x="433" y="459" type="line"/>
      <point x="443" y="459" type="line"/>
    </contour>
  </outline>
</glyph>
<glyph name="uni0453" format="2">
  <advance width="282"/>
  <unicode hex="0453"/>
  <outline>
    <contour>
      <point x="178" y="460" type="line"/>
      <point x="381" y="460" type="line"/>
      <point x="377" y="450" type="line"/>
      <point x="185" y="450" type="line"/>
      <point x="29" y="0" type="line"/>
      <point x="19" y="0" type="line"/>
    </contour>
    <contour>
      <point x="467" y="685" type="line"/>
      <point x="248" y="532" type="line"/>
      <point x="245" y="537" type="line"/>
      <point x="461" y="693" type="line"/>
    </contour>
  </outline>
</glyph>
<glyph name="uni045D" format="2">
  <advance width="446"/>
  <unicode hex="045D"/>
  <outline>
    <contour>
      <point x="473" y="466" type="line"/>
      <point x="8" y="-33" type="line"/>
      <point x="22" y="-6" type="line"/>
      <point x="488" y="493" type="line"/>
    </contour>
    <contour>
      <point x="189" y="459" type="line"/>
      <point x="24" y="-15" type="line"/>
      <point x="8" y="-34" type="line"/>
      <point x="179" y="459" type="line"/>
    </contour>
    <contour>
      <point x="488" y="494" type="line"/>
      <point x="316" y="0" type="line"/>
      <point x="306" y="0" type="line"/>
      <point x="471" y="475" type="line"/>
    </contour>
    <contour>
      <point x="263" y="712" type="line"/>
      <point x="273" y="719" type="line"/>
      <point x="380" y="560" type="line"/>
      <point x="374" y="556" type="line"/>
    </contour>
  </outline>
</glyph>
<glyph name="quoteleft" format="2">
  <advance width="211"/>
  <unicode hex="2018"/>
  <outline>
    <contour>
      <point x="173" y="472" type="line"/>
      <point x="160" y="472" type="line"/>
      <point x="332" y="698" type="line"/>
      <point x="342" y="698" type="line"/>
    </contour>
  </outline>
</glyph>
<glyph name="quotedblleft" format="2">
  <advance width="362"/>
  <unicode hex="201C"/>
  <outline>
    <contour>
      <point x="191" y="472" type="line"/>
      <point x="179" y="472" type="line"/>
      <point x="351" y="698" type="line"/>
      <point x="361" y="698" type="line"/>
    </contour>
    <contour>
      <point x="323" y="472" type="line"/>
      <point x="311" y="472" type="line"/>
      <point x="482" y="698" type="line"/>
      <point x="493" y="698" type="line"/>
    </contour>
  </outline>
</glyph>
<glyph name="quotedblbase" format="2">
  <advance width="362"/>
  <unicode hex="201E"/>
  <outline>
    <contour>
      <point x="118" y="78" type="line"/>
      <point x="130" y="78" type="line"/>
      <point x="-41" y="-148" type="line"/>
      <point x="-52" y="-148" type="line"/>
    </contour>
    <contour>
      <point x="250" y="78" type="line"/>
      <point x="262" y="78" type="line"/>
      <point x="90" y="-148" type="line"/>
      <point x="80" y="-148" type="line"/>
    </contour>
  </outline>
</glyph>
<glyph name="daggerdbl" format="2">
  <advance width="470"/>
  <unicode hex="2021"/>
  <outline>
    <contour>
      <point x="87" y="120" type="line"/>
      <point x="389" y="120" type="line"/>
      <point x="386" y="110" type="line"/>
      <point x="84" y="110" type="line"/>
    </contour>
    <contour>
      <point x="216" y="540" type="line"/>
      <point x="518" y="540" type="line"/>
      <point x="515" y="530" type="line"/>
      <point x="213" y="530" type="line"/>
    </contour>
    <contour>
      <point x="413" y="700" type="line"/>
      <point x="422" y="700" type="line"/>
      <point x="159" y="-150" type="line"/>
      <point x="149" y="-150" type="line"/>
    </contour>
  </outline>
</glyph>
<glyph name="bullet" format="2">
  <advance width="282"/>
  <unicode hex="2022"/>
  <outline>
    <contour>
      <point x="186" y="376" type="curve" smooth="yes"/>
      <point x="186" y="382"/>
      <point x="191" y="387"/>
      <point x="197" y="387" type="curve" smooth="yes"/>
      <point x="203" y="387"/>
      <point x="208" y="382"/>
      <point x="208" y="376" type="curve" smooth="yes"/>
      <point x="208" y="370"/>
      <point x="203" y="365"/>
      <point x="197" y="365" type="curve" smooth="yes"/>
      <point x="191" y="365"/>
      <point x="186" y="370"/>
    </contour>
  </outline>
</glyph>
<glyph name="uni2070" format="2">
  <advance width="304"/>
  <unicode hex="2070"/>
  <outline>
    <contour>
      <point x="152" y="490" type="curve" smooth="yes"/>
      <point x="132" y="432"/>
      <point x="97" y="283"/>
      <point x="197" y="281" type="curve" smooth="yes"/>
      <point x="296" y="279"/>
      <point x="361" y="412"/>
      <point x="388" y="490" type="curve" smooth="yes"/>
      <point x="408" y="548"/>
      <point x="443" y="697"/>
      <point x="343" y="699" type="curve" smooth="yes"/>
      <point x="244" y="701"/>
      <point x="179" y="568"/>
    </contour>
    <contour>
      <point x="145" y="490" type="curve" smooth="yes"/>
      <point x="173" y="572"/>
      <point x="239" y="706"/>
      <point x="343" y="705" type="curve" smooth="yes"/>
      <point x="449" y="703"/>
      <point x="416" y="552"/>
      <point x="395" y="490" type="curve" smooth="yes"/>
      <point x="367" y="408"/>
      <point x="301" y="274"/>
      <point x="197" y="275" type="curve" smooth="yes"/>
      <point x="91" y="277"/>
      <point x="124" y="428"/>
    </contour>
  </outline>
</glyph>
<glyph name="uni2076" format="2">
  <advance width="312"/>
  <unicode hex="2076"/>
  <outline>
    <contour>
      <point x="129" y="410" type="curve" smooth="yes"/>
      <point x="108" y="350"/>
      <point x="127" y="280"/>
      <point x="200" y="279" type="curve" smooth="yes"/>
      <point x="273" y="278"/>
      <point x="343" y="344"/>
      <point x="365" y="410" type="curve" smooth="yes"/>
      <point x="383" y="465"/>
      <point x="363" y="530"/>
      <point x="297" y="533" type="curve" smooth="yes"/>
      <point x="225" y="536"/>
      <point x="152" y="475"/>
    </contour>
    <contour>
      <point x="381" y="696" type="line"/>
      <point x="389" y="695" type="line"/>
      <point x="178" y="493" type="line"/>
      <point x="177" y="492" type="line"/>
      <point x="212" y="516"/>
      <point x="251" y="542"/>
      <point x="296" y="540" type="curve" smooth="yes"/>
      <point x="366" y="538"/>
      <point x="389" y="468"/>
      <point x="370" y="409" type="curve" smooth="yes"/>
      <point x="348" y="339"/>
      <point x="277" y="271"/>
      <point x="200" y="273" type="curve" smooth="yes"/>
      <point x="123" y="275"/>
      <point x="101" y="345"/>
      <point x="123" y="410" type="curve" smooth="yes"/>
      <point x="135" y="446"/>
      <point x="161" y="478"/>
      <point x="187" y="505" type="curve" smooth="yes"/>
    </contour>
  </outline>
</glyph>
<glyph name="uni2086" format="2">
  <advance width="312"/>
  <unicode hex="2086"/>
  <outline>
    <contour>
      <point x="33" y="130" type="curve" smooth="yes"/>
      <point x="12" y="70"/>
      <point x="31" y="0"/>
      <point x="104" y="-1" type="curve" smooth="yes"/>
      <point x="177" y="-2"/>
      <point x="247" y="64"/>
      <point x="269" y="130" type="curve" smooth="yes"/>
      <point x="287" y="185"/>
      <point x="267" y="250"/>
      <point x="201" y="253" type="curve" smooth="yes"/>
      <point x="129" y="256"/>
      <point x="56" y="195"/>
    </contour>
    <contour>
      <point x="285" y="416" type="line"/>
      <point x="294" y="415" type="line"/>
      <point x="82" y="213" type="line"/>
      <point x="81" y="212" type="line"/>
      <point x="116" y="236"/>
      <point x="156" y="262"/>
      <point x="201" y="260" type="curve" smooth="yes"/>
      <point x="271" y="258"/>
      <point x="294" y="188"/>
      <point x="275" y="129" type="curve" smooth="yes"/>
      <point x="253" y="59"/>
      <point x="181" y="-9"/>
      <point x="104" y="-7" type="curve" smooth="yes"/>
      <point x="27" y="-5"/>
      <point x="5" y="65"/>
      <point x="27" y="130" type="curve" smooth="yes"/>
      <point x="39" y="166"/>
      <point x="66" y="198"/>
      <point x="92" y="225" type="curve" smooth="yes"/>
    </contour>
  </outline>
</glyph>
<glyph name="uni2087" format="2">
  <advance width="331"/>
  <unicode hex="2087"/>
  <outline>
    <contour>
      <point x="120" y="414" type="line"/>
      <point x="122" y="420" type="line"/>
      <point x="389" y="419" type="line"/>
      <point x="34" y="0" type="line"/>
      <point x="27" y="0" type="line"/>
      <point x="375" y="413" type="line"/>
    </contour>
  </outline>
</glyph>
<glyph name="Euro" format="2">
  <advance width="658"/>
  <unicode hex="20AC"/>
  <outline>
    <contour>
      <point x="168" y="445" type="line"/>
      <point x="171" y="455" type="line"/>
      <point x="643" y="455" type="line"/>
      <point x="640" y="445" type="line"/>
    </contour>
    <contour>
      <point x="127" y="325" type="line"/>
      <point x="130" y="335" type="line"/>
      <point x="578" y="335" type="line"/>
      <point x="574" y="325" type="line"/>
    </contour>
    <contour>
      <point x="216" y="350" type="curve" smooth="yes"/>
      <point x="172" y="221"/>
      <point x="162" y="4"/>
      <point x="349" y="1" type="curve" smooth="yes"/>
      <point x="405" y="0"/>
      <point x="458" y="21"/>
      <point x="508" y="45" type="curve"/>
      <point x="502" y="30" type="line"/>
      <point x="453" y="9"/>
      <point x="402" y="-10"/>
      <point x="348" y="-9" type="curve" smooth="yes"/>
      <point x="153" y="-7"/>
      <point x="160" y="214"/>
      <point x="206" y="350" type="curve" smooth="yes"/>
      <point x="261" y="515"/>
      <point x="399" y="709"/>
      <point x="592" y="709" type="curve" smooth="yes"/>
      <point x="640" y="709"/>
      <point x="681" y="694"/>
      <point x="721" y="670" type="curve"/>
      <point x="716" y="655" type="line"/>
      <point x="678" y="684"/>
      <point x="638" y="700"/>
      <point x="590" y="700" type="curve" smooth="yes"/>
      <point x="402" y="700"/>
      <point x="270" y="510"/>
    </contour>
  </outline>
</glyph>
<glyph name="ruble" format="2">
  <advance width="501.0"/>
  <unicode hex="20BD"/>
  <outline>
    <contour>
      <point x="294.0" y="700" type="line"/>
      <point x="304.0" y="700.0" type="line"/>
      <point x="63.0" y="0.0" type="line"/>
      <point x="53.0" y="0" type="line"/>
    </contour>
    <contour>
      <point x="300.0" y="690.0" type="line"/>
      <point x="300.0" y="700" type="line"/>
      <point x="393.0" y="700" type="line" smooth="yes"/>
      <point x="528.0" y="700.0"/>
      <point x="566.0" y="634.0"/>
      <point x="566.0" y="555" type="curve" smooth="yes"/>
      <point x="566.0" y="406.0"/>
      <point x="453.0" y="310.0"/>
      <point x="268.0" y="310" type="curve" smooth="yes"/>
      <point x="185.0" y="310" type="line"/>
      <point x="185.0" y="320.0" type="line"/>
      <point x="268.0" y="320.0" type="line" smooth="yes"/>
      <point x="448.0" y="320.0"/>
      <point x="555.0" y="414.0"/>
      <point x="555.0" y="555.0" type="curve" smooth="yes"/>
      <point x="555.0" y="626.0"/>
      <point x="523.0" y="690.0"/>
      <point x="393.0" y="690.0" type="curve" smooth="yes"/>
    </contour>
    <component base="hyphen" xOffset="139.0" yOffset="-95"/>
    <component base="hyphen" xOffset="18.0" yOffset="45"/>
    <component base="hyphen" xOffset="-41.0" yOffset="-95"/>
  </outline>
</glyph>
<glyph name="uni2152" format="2">
  <advance width="1016"/>
  <unicode hex="2152"/>
  <outline>
    <contour>
      <point x="769" y="698" type="line"/>
      <point x="781" y="698" type="line"/>
      <point x="2" y="0" type="line"/>
      <point x="-10" y="0" type="line"/>
    </contour>
    <contour>
      <point x="193" y="667" type="line"/>
      <point x="195" y="674" type="line"/>
      <point x="307" y="697" type="line"/>
      <point x="159" y="275" type="line"/>
      <point x="153" y="275" type="line"/>
      <point x="296" y="688" type="line"/>
    </contour>
    <contour>
      <point x="488" y="394" type="line"/>
      <point x="490" y="401" type="line"/>
      <point x="601" y="424" type="line"/>
      <point x="454" y="2" type="line"/>
      <point x="448" y="2" type="line"/>
      <point x="591" y="415" type="line"/>
    </contour>
    <contour>
      <point x="723" y="210" type="curve" smooth="yes"/>
      <point x="703" y="152"/>
      <point x="668" y="3"/>
      <point x="768" y="1" type="curve" smooth="yes"/>
      <point x="867" y="-1"/>
      <point x="931" y="132"/>
      <point x="958" y="210" type="curve" smooth="yes"/>
      <point x="978" y="268"/>
      <point x="1014" y="417"/>
      <point x="914" y="419" type="curve" smooth="yes"/>
      <point x="815" y="421"/>
      <point x="750" y="288"/>
    </contour>
    <contour>
      <point x="716" y="210" type="curve" smooth="yes"/>
      <point x="744" y="292"/>
      <point x="810" y="426"/>
      <point x="914" y="425" type="curve" smooth="yes"/>
      <point x="1020" y="423"/>
      <point x="987" y="272"/>
      <point x="966" y="210" type="curve" smooth="yes"/>
      <point x="938" y="128"/>
      <point x="872" y="-6"/>
      <point x="768" y="-5" type="curve" smooth="yes"/>
      <point x="662" y="-3"/>
      <point x="695" y="148"/>
    </contour>
  </outline>
</glyph>
<glyph name="twothirds" format="2">
  <advance width="829"/>
  <unicode hex="2154"/>
  <outline>
    <contour>
      <point x="889" y="698" type="line"/>
      <point x="901" y="698" type="line"/>
      <point x="121" y="0" type="line"/>
      <point x="109" y="0" type="line"/>
    </contour>
    <contour>
      <point x="73" y="283" type="line"/>
      <point x="321" y="483" type="line" smooth="yes"/>
      <point x="357" y="513"/>
      <point x="398" y="548"/>
      <point x="414" y="594" type="curve" smooth="yes"/>
      <point x="432" y="645"/>
      <point x="412" y="700"/>
      <point x="352" y="702" type="curve" smooth="yes"/>
      <point x="271" y="705"/>
      <point x="219" y="623"/>
      <point x="188" y="560" type="curve"/>
      <point x="182" y="560" type="line"/>
      <point x="214" y="626"/>
      <point x="267" y="711"/>
      <point x="352" y="708" type="curve" smooth="yes"/>
      <point x="415" y="706"/>
      <point x="438" y="649"/>
      <point x="420" y="594" type="curve" smooth="yes"/>
      <point x="405" y="547"/>
      <point x="363" y="510"/>
      <point x="326" y="479" type="curve" smooth="yes"/>
      <point x="90" y="289" type="line"/>
      <point x="331" y="288" type="line"/>
      <point x="329" y="282" type="line"/>
    </contour>
    <contour>
      <point x="682" y="218" type="curve"/>
      <point x="684" y="223" type="line"/>
      <point x="744" y="233"/>
      <point x="813" y="257"/>
      <point x="836" y="320" type="curve" smooth="yes"/>
      <point x="854" y="369"/>
      <point x="827" y="417"/>
      <point x="774" y="419" type="curve" smooth="yes"/>
      <point x="709" y="421"/>
      <point x="665" y="369"/>
      <point x="635" y="318" type="curve"/>
      <point x="629" y="318" type="line"/>
      <point x="660" y="373"/>
      <point x="705" y="427"/>
      <point x="774" y="425" type="curve" smooth="yes"/>
      <point x="832" y="423"/>
      <point x="861" y="372"/>
      <point x="842" y="319" type="curve" smooth="yes"/>
      <point x="818" y="252"/>
      <point x="746" y="227"/>
    </contour>
    <contour>
      <point x="625" y="-5" type="curve" smooth="yes"/>
      <point x="552" y="-4"/>
      <point x="534" y="48"/>
      <point x="544" y="111" type="curve"/>
      <point x="550" y="111" type="line"/>
      <point x="541" y="51"/>
      <point x="554" y="2"/>
      <point x="625" y="1" type="curve" smooth="yes"/>
      <point x="687" y="0"/>
      <point x="755" y="45"/>
      <point x="774" y="105" type="curve" smooth="yes"/>
      <point x="796" y="174"/>
      <point x="741" y="204"/>
      <point x="683" y="215" type="curve"/>
      <point x="684" y="220" type="line"/>
      <point x="746" y="209"/>
      <point x="803" y="177"/>
      <point x="780" y="104" type="curve" smooth="yes"/>
      <point x="760" y="41"/>
      <point x="690" y="-6"/>
    </contour>
  </outline>
</glyph>
<glyph name="uni2159" format="2">
  <advance width="690"/>
  <unicode hex="2159"/>
  <outline>
    <contour>
      <point x="769" y="698" type="line"/>
      <point x="781" y="698" type="line"/>
      <point x="2" y="0" type="line"/>
      <point x="-10" y="0" type="line"/>
    </contour>
    <contour>
      <point x="193" y="667" type="line"/>
      <point x="195" y="674" type="line"/>
      <point x="307" y="697" type="line"/>
      <point x="159" y="275" type="line"/>
      <point x="153" y="275" type="line"/>
      <point x="296" y="688" type="line"/>
    </contour>
    <contour>
      <point x="398" y="130" type="curve" smooth="yes"/>
      <point x="377" y="70"/>
      <point x="397" y="0"/>
      <point x="470" y="-1" type="curve" smooth="yes"/>
      <point x="543" y="-2"/>
      <point x="612" y="64"/>
      <point x="634" y="130" type="curve" smooth="yes"/>
      <point x="652" y="185"/>
      <point x="632" y="250"/>
      <point x="566" y="253" type="curve" smooth="yes"/>
      <point x="494" y="256"/>
      <point x="421" y="195"/>
    </contour>
    <contour>
      <point x="650" y="416" type="line"/>
      <point x="659" y="415" type="line"/>
      <point x="448" y="213" type="line"/>
      <point x="447" y="212" type="line"/>
      <point x="482" y="236"/>
      <point x="521" y="262"/>
      <point x="566" y="260" type="curve" smooth="yes"/>
      <point x="636" y="258"/>
      <point x="659" y="188"/>
      <point x="640" y="129" type="curve" smooth="yes"/>
      <point x="618" y="59"/>
      <point x="547" y="-9"/>
      <point x="470" y="-7" type="curve" smooth="yes"/>
      <point x="393" y="-5"/>
      <point x="370" y="65"/>
      <point x="392" y="130" type="curve" smooth="yes"/>
      <point x="404" y="166"/>
      <point x="431" y="198"/>
      <point x="457" y="225" type="curve" smooth="yes"/>
    </contour>
  </outline>
</glyph>
<glyph name="threeeighths" format="2">
  <advance width="796"/>
  <unicode hex="215C"/>
  <outline>
    <contour>
      <point x="851" y="698" type="line"/>
      <point x="863" y="698" type="line"/>
      <point x="84" y="0" type="line"/>
      <point x="71" y="0" type="line"/>
    </contour>
    <contour>
      <point x="251" y="498" type="curve"/>
      <point x="253" y="503" type="line"/>
      <point x="313" y="513"/>
      <point x="382" y="537"/>
      <point x="405" y="600" type="curve" smooth="yes"/>
      <point x="423" y="649"/>
      <point x="395" y="697"/>
      <point x="342" y="699" type="curve" smooth="yes"/>
      <point x="277" y="701"/>
      <point x="233" y="649"/>
      <point x="203" y="598" type="curve"/>
      <point x="197" y="598" type="line"/>
      <point x="228" y="653"/>
      <point x="274" y="707"/>
      <point x="343" y="705" type="curve" smooth="yes"/>
      <point x="401" y="703"/>
      <point x="430" y="652"/>
      <point x="411" y="599" type="curve" smooth="yes"/>
      <point x="387" y="532"/>
      <point x="315" y="507"/>
    </contour>
    <contour>
      <point x="193" y="275" type="curve" smooth="yes"/>
      <point x="120" y="276"/>
      <point x="102" y="328"/>
      <point x="112" y="391" type="curve"/>
      <point x="118" y="391" type="line"/>
      <point x="109" y="331"/>
      <point x="122" y="282"/>
      <point x="193" y="281" type="curve" smooth="yes"/>
      <point x="255" y="280"/>
      <point x="324" y="325"/>
      <point x="343" y="385" type="curve" smooth="yes"/>
      <point x="365" y="454"/>
      <point x="309" y="484"/>
      <point x="251" y="495" type="curve"/>
      <point x="253" y="500" type="line"/>
      <point x="315" y="489"/>
      <point x="372" y="457"/>
      <point x="349" y="384" type="curve" smooth="yes"/>
      <point x="329" y="321"/>
      <point x="258" y="274"/>
    </contour>
    <contour>
      <point x="594" y="326" type="curve" smooth="yes"/>
      <point x="611" y="377"/>
      <point x="672" y="426"/>
      <point x="727" y="425" type="curve" smooth="yes"/>
      <point x="781" y="424"/>
      <point x="808" y="372"/>
      <point x="792" y="324" type="curve" smooth="yes"/>
      <point x="775" y="273"/>
      <point x="713" y="220"/>
      <point x="658" y="222" type="curve" smooth="yes"/>
      <point x="604" y="223"/>
      <point x="579" y="279"/>
    </contour>
    <contour>
      <point x="600" y="326" type="curve" smooth="yes"/>
      <point x="585" y="283"/>
      <point x="607" y="228"/>
      <point x="657" y="226" type="curve" smooth="yes"/>
      <point x="708" y="224"/>
      <point x="770" y="277"/>
      <point x="786" y="324" type="curve" smooth="yes"/>
      <point x="801" y="370"/>
      <point x="778" y="417"/>
      <point x="727" y="419" type="curve" smooth="yes"/>
      <point x="675" y="421"/>
      <point x="616" y="374"/>
    </contour>
    <contour>
      <point x="510" y="112" type="curve" smooth="yes"/>
      <point x="530" y="169"/>
      <point x="596" y="223"/>
      <point x="658" y="222" type="curve" smooth="yes"/>
      <point x="719" y="221"/>
      <point x="746" y="164"/>
      <point x="730" y="110" type="curve" smooth="yes"/>
      <point x="712" y="49"/>
      <point x="645" y="-7"/>
      <point x="580" y="-5" type="curve" smooth="yes"/>
      <point x="515" y="-3"/>
      <point x="490" y="55"/>
    </contour>
    <contour>
      <point x="516" y="111" type="curve" smooth="yes"/>
      <point x="497" y="58"/>
      <point x="518" y="2"/>
      <point x="580" y="1" type="curve" smooth="yes"/>
      <point x="642" y="-1"/>
      <point x="706" y="53"/>
      <point x="724" y="111" type="curve" smooth="yes"/>
      <point x="740" y="161"/>
      <point x="716" y="216"/>
      <point x="658" y="218" type="curve" smooth="yes"/>
      <point x="598" y="220"/>
      <point x="536" y="165"/>
    </contour>
  </outline>
</glyph>
<glyph name="emptyset" format="2">
  <advance width="600"/>
  <unicode hex="2205"/>
  <outline>
    <contour>
      <point x="239" y="28" type="curve" smooth="yes"/>
      <point x="121" y="28"/>
      <point x="58" y="124"/>
      <point x="97" y="242" type="curve" smooth="yes"/>
      <point x="136" y="360"/>
      <point x="265" y="456"/>
      <point x="383" y="456" type="curve" smooth="yes"/>
      <point x="501" y="456"/>
      <point x="564" y="360"/>
      <point x="525" y="242" type="curve" smooth="yes"/>
      <point x="486" y="124"/>
      <point x="357" y="28"/>
    </contour>
    <contour>
      <point x="238" y="38" type="curve" smooth="yes"/>
      <point x="350" y="38"/>
      <point x="478" y="130"/>
      <point x="515" y="242" type="curve" smooth="yes"/>
      <point x="552" y="354"/>
      <point x="496" y="446"/>
      <point x="384" y="446" type="curve" smooth="yes"/>
      <point x="272" y="446"/>
      <point x="144" y="354"/>
      <point x="107" y="242" type="curve" smooth="yes"/>
      <point x="70" y="130"/>
      <point x="126" y="38"/>
    </contour>
    <contour>
      <point x="54" y="44" type="line"/>
      <point x="49" y="50" type="line"/>
      <point x="569" y="438" type="line"/>
      <point x="573" y="432" type="line"/>
    </contour>
  </outline>
</glyph>
<glyph name="infinity" format="2">
  <advance width="826"/>
  <unicode hex="221E"/>
  <outline>
    <contour>
      <point x="146" y="74" type="curve" smooth="yes"/>
      <point x="56" y="74"/>
      <point x="4" y="157"/>
      <point x="37" y="255" type="curve" smooth="yes"/>
      <point x="70" y="353"/>
      <point x="177" y="436"/>
      <point x="267" y="436" type="curve" smooth="yes"/>
      <point x="341" y="436"/>
      <point x="394" y="379"/>
      <point x="431" y="263" type="curve"/>
      <point x="546" y="379"/>
      <point x="637" y="436"/>
      <point x="711" y="436" type="curve" smooth="yes"/>
      <point x="801" y="436"/>
      <point x="851" y="351"/>
      <point x="819" y="255" type="curve" smooth="yes"/>
      <point x="786" y="157"/>
      <point x="681" y="74"/>
      <point x="590" y="74" type="curve" smooth="yes"/>
      <point x="516" y="74"/>
      <point x="463" y="131"/>
      <point x="426" y="247" type="curve"/>
      <point x="311" y="131"/>
      <point x="220" y="74"/>
    </contour>
    <contour>
      <point x="147" y="84" type="curve" smooth="yes"/>
      <point x="219" y="84"/>
      <point x="320" y="147"/>
      <point x="423" y="255" type="curve"/>
      <point x="392" y="363"/>
      <point x="334" y="426"/>
      <point x="262" y="426" type="curve" smooth="yes"/>
      <point x="179" y="426"/>
      <point x="77" y="345"/>
      <point x="47" y="255" type="curve" smooth="yes"/>
      <point x="17" y="165"/>
      <point x="64" y="84"/>
    </contour>
    <contour>
      <point x="595" y="84" type="curve" smooth="yes"/>
      <point x="677" y="84"/>
      <point x="779" y="165"/>
      <point x="809" y="255" type="curve" smooth="yes"/>
      <point x="840" y="347"/>
      <point x="794" y="426"/>
      <point x="710" y="426" type="curve" smooth="yes"/>
      <point x="638" y="426"/>
      <point x="536" y="363"/>
      <point x="433" y="255" type="curve"/>
      <point x="464" y="147"/>
      <point x="523" y="84"/>
    </contour>
  </outline>
</glyph>
<glyph name="notequal" format="2">
  <advance width="600"/>
  <unicode hex="2260"/>
  <outline>
    <contour>
      <point x="45" y="40" type="line"/>
      <point x="593" y="450" type="line"/>
      <point x="585" y="456" type="line"/>
      <point x="37" y="46" type="line"/>
    </contour>
    <contour>
      <point x="57" y="185" type="line"/>
      <point x="542" y="185" type="line"/>
      <point x="545" y="195" type="line"/>
      <point x="60" y="195" type="line"/>
    </contour>
    <contour>
      <point x="99" y="310" type="line"/>
      <point x="584" y="310" type="line"/>
      <point x="587" y="320" type="line"/>
      <point x="102" y="320" type="line"/>
    </contour>
  </outline>
</glyph>
<glyph name="adieresis.alt" format="2">
  <advance width="509"/>
  <outline>
    <contour>
      <point x="528" y="459" type="line"/>
      <point x="538" y="459" type="line"/>
      <point x="378" y="0" type="line"/>
      <point x="369" y="0" type="line"/>
    </contour>
    <contour>
      <point x="66" y="230" type="curve" smooth="yes"/>
      <point x="105" y="346"/>
      <point x="215" y="472"/>
      <point x="348" y="469" type="curve" smooth="yes"/>
      <point x="474" y="466"/>
      <point x="485" y="324"/>
      <point x="454" y="230" type="curve" smooth="yes"/>
      <point x="417" y="120"/>
      <point x="313" y="-8"/>
      <point x="186" y="-9" type="curve" smooth="yes"/>
      <point x="53" y="-10"/>
      <point x="32" y="128"/>
    </contour>
    <contour>
      <point x="76" y="230" type="curve" smooth="yes"/>
      <point x="43" y="133"/>
      <point x="62" y="-1"/>
      <point x="190" y="1" type="curve" smooth="yes"/>
      <point x="310" y="3"/>
      <point x="413" y="125"/>
      <point x="449" y="230" type="curve" smooth="yes"/>
      <point x="479" y="318"/>
      <point x="467" y="455"/>
      <point x="349" y="459" type="curve" smooth="yes"/>
      <point x="222" y="464"/>
      <point x="114" y="341"/>
    </contour>
    <contour>
      <point x="483" y="591" type="curve" smooth="yes"/>
      <point x="484" y="595"/>
      <point x="492" y="602"/>
      <point x="497" y="602" type="curve" smooth="yes"/>
      <point x="502" y="602"/>
      <point x="505" y="596"/>
      <point x="504" y="591" type="curve" smooth="yes"/>
      <point x="503" y="587"/>
      <point x="495" y="580"/>
      <point x="490" y="580" type="curve" smooth="yes"/>
      <point x="485" y="580"/>
      <point x="482" y="586"/>
    </contour>
    <contour>
      <point x="295" y="591" type="curve" smooth="yes"/>
      <point x="296" y="595"/>
      <point x="304" y="602"/>
      <point x="309" y="602" type="curve" smooth="yes"/>
      <point x="314" y="602"/>
      <point x="317" y="596"/>
      <point x="316" y="591" type="curve" smooth="yes"/>
      <point x="315" y="587"/>
      <point x="307" y="580"/>
      <point x="302" y="580" type="curve" smooth="yes"/>
      <point x="297" y="580"/>
      <point x="294" y="586"/>
    </contour>
  </outline>
</glyph>
<glyph name="amacron.alt" format="2">
  <advance width="509"/>
  <outline>
    <contour>
      <point x="528" y="459" type="line"/>
      <point x="538" y="459" type="line"/>
      <point x="378" y="0" type="line"/>
      <point x="369" y="0" type="line"/>
    </contour>
    <contour>
      <point x="66" y="230" type="curve" smooth="yes"/>
      <point x="105" y="346"/>
      <point x="215" y="472"/>
      <point x="348" y="469" type="curve" smooth="yes"/>
      <point x="474" y="466"/>
      <point x="485" y="324"/>
      <point x="454" y="230" type="curve" smooth="yes"/>
      <point x="417" y="120"/>
      <point x="313" y="-8"/>
      <point x="186" y="-9" type="curve" smooth="yes"/>
      <point x="53" y="-10"/>
      <point x="32" y="128"/>
    </contour>
    <contour>
      <point x="76" y="230" type="curve" smooth="yes"/>
      <point x="43" y="133"/>
      <point x="62" y="-1"/>
      <point x="190" y="1" type="curve" smooth="yes"/>
      <point x="310" y="3"/>
      <point x="413" y="125"/>
      <point x="449" y="230" type="curve" smooth="yes"/>
      <point x="479" y="318"/>
      <point x="467" y="455"/>
      <point x="349" y="459" type="curve" smooth="yes"/>
      <point x="222" y="464"/>
      <point x="114" y="341"/>
    </contour>
    <contour>
      <point x="211" y="550" type="line"/>
      <point x="215" y="560" type="line"/>
      <point x="544" y="560" type="line"/>
      <point x="541" y="550" type="line"/>
    </contour>
  </outline>
</glyph>
